M48
;DRILL file {KiCad 4.0.5+dfsg1-4} date Fri Sep 29 16:02:47 2017
;FORMAT={-:-/ absolute / inch / decimal}
FMAT,2
INCH,TZ
T1C0.039
T2C0.039
T3C0.040
T4C0.079
T5C0.126
%
G90
G05
M72
T1
X3.3Y-3.2
X3.4Y-3.2
X3.5Y-3.2
X3.6Y-3.2
X3.7Y-3.2
X3.8Y-3.2
X3.9Y-3.2
T2
X3.05Y-3.3
X3.05Y-3.4
X3.05Y-3.6
X3.05Y-3.7
X3.3Y-3.8
X3.4Y-3.8
X3.5Y-3.8
X3.55Y-3.35
X3.55Y-3.5
X3.55Y-3.65
X3.6Y-3.8
X3.7Y-3.8
X3.8Y-3.8
X3.9Y-3.8
X3.95Y-3.35
X3.95Y-3.5
X3.95Y-3.65
X4.Y-3.2
X4.Y-3.8
X4.1Y-3.2
X4.1Y-3.8
X4.15Y-3.35
X4.15Y-3.5
X4.15Y-3.65
X4.2Y-3.2
X4.2Y-3.8
X4.3Y-3.2
X4.3Y-3.8
X4.4Y-3.2
X4.4Y-3.8
X4.5Y-3.2
X4.5Y-3.8
X4.55Y-3.35
X4.55Y-3.5
X4.55Y-3.65
X4.6Y-3.2
X4.6Y-3.8
X4.7Y-3.2
X4.7Y-3.8
T3
X3.5Y-4.05
X3.6Y-4.05
X3.7Y-4.05
X3.8Y-4.05
X3.9Y-4.05
X4.Y-4.05
X4.1Y-4.05
X4.2Y-4.05
X4.3Y-4.05
T4
X3.3776Y-2.8
X3.535Y-2.8
X3.6925Y-2.8039
X3.85Y-2.8
X4.1059Y-2.8
X4.2634Y-2.8
X4.4209Y-2.8
T5
X3.05Y-2.45
X3.05Y-4.1
X4.7Y-2.45
X4.7Y-4.1
T0
M30
