G04 #@! TF.FileFunction,Legend,Bot*
%FSLAX46Y46*%
G04 Gerber Fmt 4.6, Leading zero omitted, Abs format (unit mm)*
G04 Created by KiCad (PCBNEW 4.0.5+dfsg1-4) date Fri Sep 29 16:02:04 2017*
%MOMM*%
%LPD*%
G01*
G04 APERTURE LIST*
%ADD10C,0.100000*%
%ADD11C,0.300000*%
G04 APERTURE END LIST*
D10*
D11*
X82988572Y-65366429D02*
X82988572Y-66866429D01*
X83345715Y-66866429D01*
X83560000Y-66795000D01*
X83702858Y-66652143D01*
X83774286Y-66509286D01*
X83845715Y-66223571D01*
X83845715Y-66009286D01*
X83774286Y-65723571D01*
X83702858Y-65580714D01*
X83560000Y-65437857D01*
X83345715Y-65366429D01*
X82988572Y-65366429D01*
X85060000Y-65437857D02*
X84917143Y-65366429D01*
X84631429Y-65366429D01*
X84488572Y-65437857D01*
X84417143Y-65580714D01*
X84417143Y-66152143D01*
X84488572Y-66295000D01*
X84631429Y-66366429D01*
X84917143Y-66366429D01*
X85060000Y-66295000D01*
X85131429Y-66152143D01*
X85131429Y-66009286D01*
X84417143Y-65866429D01*
X85702857Y-65437857D02*
X85845714Y-65366429D01*
X86131429Y-65366429D01*
X86274286Y-65437857D01*
X86345714Y-65580714D01*
X86345714Y-65652143D01*
X86274286Y-65795000D01*
X86131429Y-65866429D01*
X85917143Y-65866429D01*
X85774286Y-65937857D01*
X85702857Y-66080714D01*
X85702857Y-66152143D01*
X85774286Y-66295000D01*
X85917143Y-66366429D01*
X86131429Y-66366429D01*
X86274286Y-66295000D01*
X86988572Y-65366429D02*
X86988572Y-66366429D01*
X86988572Y-66866429D02*
X86917143Y-66795000D01*
X86988572Y-66723571D01*
X87060000Y-66795000D01*
X86988572Y-66866429D01*
X86988572Y-66723571D01*
X88345715Y-66366429D02*
X88345715Y-65152143D01*
X88274286Y-65009286D01*
X88202858Y-64937857D01*
X88060001Y-64866429D01*
X87845715Y-64866429D01*
X87702858Y-64937857D01*
X88345715Y-65437857D02*
X88202858Y-65366429D01*
X87917144Y-65366429D01*
X87774286Y-65437857D01*
X87702858Y-65509286D01*
X87631429Y-65652143D01*
X87631429Y-66080714D01*
X87702858Y-66223571D01*
X87774286Y-66295000D01*
X87917144Y-66366429D01*
X88202858Y-66366429D01*
X88345715Y-66295000D01*
X89060001Y-66366429D02*
X89060001Y-65366429D01*
X89060001Y-66223571D02*
X89131429Y-66295000D01*
X89274287Y-66366429D01*
X89488572Y-66366429D01*
X89631429Y-66295000D01*
X89702858Y-66152143D01*
X89702858Y-65366429D01*
X90988572Y-65437857D02*
X90845715Y-65366429D01*
X90560001Y-65366429D01*
X90417144Y-65437857D01*
X90345715Y-65580714D01*
X90345715Y-66152143D01*
X90417144Y-66295000D01*
X90560001Y-66366429D01*
X90845715Y-66366429D01*
X90988572Y-66295000D01*
X91060001Y-66152143D01*
X91060001Y-66009286D01*
X90345715Y-65866429D01*
X92345715Y-65366429D02*
X92345715Y-66866429D01*
X92345715Y-65437857D02*
X92202858Y-65366429D01*
X91917144Y-65366429D01*
X91774286Y-65437857D01*
X91702858Y-65509286D01*
X91631429Y-65652143D01*
X91631429Y-66080714D01*
X91702858Y-66223571D01*
X91774286Y-66295000D01*
X91917144Y-66366429D01*
X92202858Y-66366429D01*
X92345715Y-66295000D01*
X94202858Y-65366429D02*
X94202858Y-66866429D01*
X94202858Y-66295000D02*
X94345715Y-66366429D01*
X94631429Y-66366429D01*
X94774286Y-66295000D01*
X94845715Y-66223571D01*
X94917144Y-66080714D01*
X94917144Y-65652143D01*
X94845715Y-65509286D01*
X94774286Y-65437857D01*
X94631429Y-65366429D01*
X94345715Y-65366429D01*
X94202858Y-65437857D01*
X95417144Y-66366429D02*
X95774287Y-65366429D01*
X96131429Y-66366429D02*
X95774287Y-65366429D01*
X95631429Y-65009286D01*
X95560001Y-64937857D01*
X95417144Y-64866429D01*
X97845715Y-65366429D02*
X97845715Y-66866429D01*
X98417144Y-66366429D02*
X98774287Y-65366429D01*
X99131429Y-66366429D01*
X99917144Y-65366429D02*
X99774286Y-65437857D01*
X99702858Y-65509286D01*
X99631429Y-65652143D01*
X99631429Y-66080714D01*
X99702858Y-66223571D01*
X99774286Y-66295000D01*
X99917144Y-66366429D01*
X100131429Y-66366429D01*
X100274286Y-66295000D01*
X100345715Y-66223571D01*
X100417144Y-66080714D01*
X100417144Y-65652143D01*
X100345715Y-65509286D01*
X100274286Y-65437857D01*
X100131429Y-65366429D01*
X99917144Y-65366429D01*
X102060001Y-66366429D02*
X102417144Y-65366429D01*
X102774286Y-66366429D01*
X103988572Y-65366429D02*
X103988572Y-66152143D01*
X103917143Y-66295000D01*
X103774286Y-66366429D01*
X103488572Y-66366429D01*
X103345715Y-66295000D01*
X103988572Y-65437857D02*
X103845715Y-65366429D01*
X103488572Y-65366429D01*
X103345715Y-65437857D01*
X103274286Y-65580714D01*
X103274286Y-65723571D01*
X103345715Y-65866429D01*
X103488572Y-65937857D01*
X103845715Y-65937857D01*
X103988572Y-66009286D01*
X104702858Y-66366429D02*
X104702858Y-65366429D01*
X104702858Y-66223571D02*
X104774286Y-66295000D01*
X104917144Y-66366429D01*
X105131429Y-66366429D01*
X105274286Y-66295000D01*
X105345715Y-66152143D01*
X105345715Y-65366429D01*
X107202858Y-65366429D02*
X107202858Y-66866429D01*
X107774286Y-66866429D01*
X107917144Y-66795000D01*
X107988572Y-66723571D01*
X108060001Y-66580714D01*
X108060001Y-66366429D01*
X107988572Y-66223571D01*
X107917144Y-66152143D01*
X107774286Y-66080714D01*
X107202858Y-66080714D01*
X108917144Y-65366429D02*
X108774286Y-65437857D01*
X108702858Y-65509286D01*
X108631429Y-65652143D01*
X108631429Y-66080714D01*
X108702858Y-66223571D01*
X108774286Y-66295000D01*
X108917144Y-66366429D01*
X109131429Y-66366429D01*
X109274286Y-66295000D01*
X109345715Y-66223571D01*
X109417144Y-66080714D01*
X109417144Y-65652143D01*
X109345715Y-65509286D01*
X109274286Y-65437857D01*
X109131429Y-65366429D01*
X108917144Y-65366429D01*
X110274287Y-65366429D02*
X110131429Y-65437857D01*
X110060001Y-65509286D01*
X109988572Y-65652143D01*
X109988572Y-66080714D01*
X110060001Y-66223571D01*
X110131429Y-66295000D01*
X110274287Y-66366429D01*
X110488572Y-66366429D01*
X110631429Y-66295000D01*
X110702858Y-66223571D01*
X110774287Y-66080714D01*
X110774287Y-65652143D01*
X110702858Y-65509286D01*
X110631429Y-65437857D01*
X110488572Y-65366429D01*
X110274287Y-65366429D01*
X111417144Y-65366429D02*
X111417144Y-66366429D01*
X111417144Y-66080714D02*
X111488572Y-66223571D01*
X111560001Y-66295000D01*
X111702858Y-66366429D01*
X111845715Y-66366429D01*
X112131429Y-66366429D02*
X112702858Y-66366429D01*
X112345715Y-66866429D02*
X112345715Y-65580714D01*
X112417143Y-65437857D01*
X112560001Y-65366429D01*
X112702858Y-65366429D01*
X113774286Y-65437857D02*
X113631429Y-65366429D01*
X113345715Y-65366429D01*
X113202858Y-65437857D01*
X113131429Y-65580714D01*
X113131429Y-66152143D01*
X113202858Y-66295000D01*
X113345715Y-66366429D01*
X113631429Y-66366429D01*
X113774286Y-66295000D01*
X113845715Y-66152143D01*
X113845715Y-66009286D01*
X113131429Y-65866429D01*
X114488572Y-66366429D02*
X114488572Y-65366429D01*
X114488572Y-66223571D02*
X114560000Y-66295000D01*
X114702858Y-66366429D01*
X114917143Y-66366429D01*
X115060000Y-66295000D01*
X115131429Y-66152143D01*
X115131429Y-65366429D01*
X89702858Y-62959286D02*
X89631429Y-62887857D01*
X89417143Y-62816429D01*
X89274286Y-62816429D01*
X89060001Y-62887857D01*
X88917143Y-63030714D01*
X88845715Y-63173571D01*
X88774286Y-63459286D01*
X88774286Y-63673571D01*
X88845715Y-63959286D01*
X88917143Y-64102143D01*
X89060001Y-64245000D01*
X89274286Y-64316429D01*
X89417143Y-64316429D01*
X89631429Y-64245000D01*
X89702858Y-64173571D01*
X90560001Y-62816429D02*
X90417143Y-62887857D01*
X90345715Y-62959286D01*
X90274286Y-63102143D01*
X90274286Y-63530714D01*
X90345715Y-63673571D01*
X90417143Y-63745000D01*
X90560001Y-63816429D01*
X90774286Y-63816429D01*
X90917143Y-63745000D01*
X90988572Y-63673571D01*
X91060001Y-63530714D01*
X91060001Y-63102143D01*
X90988572Y-62959286D01*
X90917143Y-62887857D01*
X90774286Y-62816429D01*
X90560001Y-62816429D01*
X91702858Y-63816429D02*
X91702858Y-62316429D01*
X91702858Y-63745000D02*
X91845715Y-63816429D01*
X92131429Y-63816429D01*
X92274286Y-63745000D01*
X92345715Y-63673571D01*
X92417144Y-63530714D01*
X92417144Y-63102143D01*
X92345715Y-62959286D01*
X92274286Y-62887857D01*
X92131429Y-62816429D01*
X91845715Y-62816429D01*
X91702858Y-62887857D01*
X92917144Y-63816429D02*
X93274287Y-62816429D01*
X93631429Y-63816429D02*
X93274287Y-62816429D01*
X93131429Y-62459286D01*
X93060001Y-62387857D01*
X92917144Y-62316429D01*
X94202858Y-62816429D02*
X94202858Y-63816429D01*
X94202858Y-63530714D02*
X94274286Y-63673571D01*
X94345715Y-63745000D01*
X94488572Y-63816429D01*
X94631429Y-63816429D01*
X95131429Y-62816429D02*
X95131429Y-63816429D01*
X95131429Y-64316429D02*
X95060000Y-64245000D01*
X95131429Y-64173571D01*
X95202857Y-64245000D01*
X95131429Y-64316429D01*
X95131429Y-64173571D01*
X96488572Y-63816429D02*
X96488572Y-62602143D01*
X96417143Y-62459286D01*
X96345715Y-62387857D01*
X96202858Y-62316429D01*
X95988572Y-62316429D01*
X95845715Y-62387857D01*
X96488572Y-62887857D02*
X96345715Y-62816429D01*
X96060001Y-62816429D01*
X95917143Y-62887857D01*
X95845715Y-62959286D01*
X95774286Y-63102143D01*
X95774286Y-63530714D01*
X95845715Y-63673571D01*
X95917143Y-63745000D01*
X96060001Y-63816429D01*
X96345715Y-63816429D01*
X96488572Y-63745000D01*
X97202858Y-62816429D02*
X97202858Y-64316429D01*
X97845715Y-62816429D02*
X97845715Y-63602143D01*
X97774286Y-63745000D01*
X97631429Y-63816429D01*
X97417144Y-63816429D01*
X97274286Y-63745000D01*
X97202858Y-63673571D01*
X98345715Y-63816429D02*
X98917144Y-63816429D01*
X98560001Y-64316429D02*
X98560001Y-63030714D01*
X98631429Y-62887857D01*
X98774287Y-62816429D01*
X98917144Y-62816429D01*
X101774287Y-63959286D02*
X101631429Y-64030714D01*
X101345715Y-64030714D01*
X101202858Y-63959286D01*
X101060001Y-63816429D01*
X100988572Y-63673571D01*
X100988572Y-63387857D01*
X101060001Y-63245000D01*
X101202858Y-63102143D01*
X101345715Y-63030714D01*
X101631429Y-63030714D01*
X101774287Y-63102143D01*
X101488572Y-64530714D02*
X101131429Y-64459286D01*
X100774287Y-64245000D01*
X100560001Y-63887857D01*
X100488572Y-63530714D01*
X100560001Y-63173571D01*
X100774287Y-62816429D01*
X101131429Y-62602143D01*
X101488572Y-62530714D01*
X101845715Y-62602143D01*
X102202858Y-62816429D01*
X102417144Y-63173571D01*
X102488572Y-63530714D01*
X102417144Y-63887857D01*
X102202858Y-64245000D01*
X101845715Y-64459286D01*
X101488572Y-64530714D01*
X104202858Y-64173571D02*
X104274287Y-64245000D01*
X104417144Y-64316429D01*
X104774287Y-64316429D01*
X104917144Y-64245000D01*
X104988573Y-64173571D01*
X105060001Y-64030714D01*
X105060001Y-63887857D01*
X104988573Y-63673571D01*
X104131430Y-62816429D01*
X105060001Y-62816429D01*
X105988572Y-64316429D02*
X106131429Y-64316429D01*
X106274286Y-64245000D01*
X106345715Y-64173571D01*
X106417144Y-64030714D01*
X106488572Y-63745000D01*
X106488572Y-63387857D01*
X106417144Y-63102143D01*
X106345715Y-62959286D01*
X106274286Y-62887857D01*
X106131429Y-62816429D01*
X105988572Y-62816429D01*
X105845715Y-62887857D01*
X105774286Y-62959286D01*
X105702858Y-63102143D01*
X105631429Y-63387857D01*
X105631429Y-63745000D01*
X105702858Y-64030714D01*
X105774286Y-64173571D01*
X105845715Y-64245000D01*
X105988572Y-64316429D01*
X107917143Y-62816429D02*
X107060000Y-62816429D01*
X107488572Y-62816429D02*
X107488572Y-64316429D01*
X107345715Y-64102143D01*
X107202857Y-63959286D01*
X107060000Y-63887857D01*
X108417143Y-64316429D02*
X109417143Y-64316429D01*
X108774286Y-62816429D01*
X83167145Y-75592857D02*
X83381431Y-75521429D01*
X83738574Y-75521429D01*
X83881431Y-75592857D01*
X83952860Y-75664286D01*
X84024288Y-75807143D01*
X84024288Y-75950000D01*
X83952860Y-76092857D01*
X83881431Y-76164286D01*
X83738574Y-76235714D01*
X83452860Y-76307143D01*
X83310002Y-76378571D01*
X83238574Y-76450000D01*
X83167145Y-76592857D01*
X83167145Y-76735714D01*
X83238574Y-76878571D01*
X83310002Y-76950000D01*
X83452860Y-77021429D01*
X83810002Y-77021429D01*
X84024288Y-76950000D01*
X84667145Y-75521429D02*
X84667145Y-77021429D01*
X85524288Y-75521429D01*
X85524288Y-77021429D01*
X86238574Y-76307143D02*
X86738574Y-76307143D01*
X86952860Y-75521429D02*
X86238574Y-75521429D01*
X86238574Y-77021429D01*
X86952860Y-77021429D01*
X87524288Y-75592857D02*
X87738574Y-75521429D01*
X88095717Y-75521429D01*
X88238574Y-75592857D01*
X88310003Y-75664286D01*
X88381431Y-75807143D01*
X88381431Y-75950000D01*
X88310003Y-76092857D01*
X88238574Y-76164286D01*
X88095717Y-76235714D01*
X87810003Y-76307143D01*
X87667145Y-76378571D01*
X87595717Y-76450000D01*
X87524288Y-76592857D01*
X87524288Y-76735714D01*
X87595717Y-76878571D01*
X87667145Y-76950000D01*
X87810003Y-77021429D01*
X88167145Y-77021429D01*
X88381431Y-76950000D01*
X88952859Y-76878571D02*
X89024288Y-76950000D01*
X89167145Y-77021429D01*
X89524288Y-77021429D01*
X89667145Y-76950000D01*
X89738574Y-76878571D01*
X89810002Y-76735714D01*
X89810002Y-76592857D01*
X89738574Y-76378571D01*
X88881431Y-75521429D01*
X89810002Y-75521429D01*
X90881430Y-77021429D02*
X90881430Y-75950000D01*
X90810002Y-75735714D01*
X90667145Y-75592857D01*
X90452859Y-75521429D01*
X90310002Y-75521429D01*
X91881430Y-77021429D02*
X92167144Y-77021429D01*
X92310002Y-76950000D01*
X92452859Y-76807143D01*
X92524287Y-76521429D01*
X92524287Y-76021429D01*
X92452859Y-75735714D01*
X92310002Y-75592857D01*
X92167144Y-75521429D01*
X91881430Y-75521429D01*
X91738573Y-75592857D01*
X91595716Y-75735714D01*
X91524287Y-76021429D01*
X91524287Y-76521429D01*
X91595716Y-76807143D01*
X91738573Y-76950000D01*
X91881430Y-77021429D01*
X93452859Y-76235714D02*
X93452859Y-75521429D01*
X92952859Y-77021429D02*
X93452859Y-76235714D01*
X93952859Y-77021429D01*
X96452859Y-75521429D02*
X95952859Y-76235714D01*
X95595716Y-75521429D02*
X95595716Y-77021429D01*
X96167144Y-77021429D01*
X96310002Y-76950000D01*
X96381430Y-76878571D01*
X96452859Y-76735714D01*
X96452859Y-76521429D01*
X96381430Y-76378571D01*
X96310002Y-76307143D01*
X96167144Y-76235714D01*
X95595716Y-76235714D01*
X97667144Y-75592857D02*
X97524287Y-75521429D01*
X97238573Y-75521429D01*
X97095716Y-75592857D01*
X97024287Y-75735714D01*
X97024287Y-76307143D01*
X97095716Y-76450000D01*
X97238573Y-76521429D01*
X97524287Y-76521429D01*
X97667144Y-76450000D01*
X97738573Y-76307143D01*
X97738573Y-76164286D01*
X97024287Y-76021429D01*
X98238573Y-76521429D02*
X98595716Y-75521429D01*
X98952858Y-76521429D01*
X99524287Y-75664286D02*
X99595715Y-75592857D01*
X99524287Y-75521429D01*
X99452858Y-75592857D01*
X99524287Y-75664286D01*
X99524287Y-75521429D01*
X101310001Y-75950000D02*
X102024287Y-75950000D01*
X101167144Y-75521429D02*
X101667144Y-77021429D01*
X102167144Y-75521429D01*
X103738572Y-75592857D02*
X103952858Y-75521429D01*
X104310001Y-75521429D01*
X104452858Y-75592857D01*
X104524287Y-75664286D01*
X104595715Y-75807143D01*
X104595715Y-75950000D01*
X104524287Y-76092857D01*
X104452858Y-76164286D01*
X104310001Y-76235714D01*
X104024287Y-76307143D01*
X103881429Y-76378571D01*
X103810001Y-76450000D01*
X103738572Y-76592857D01*
X103738572Y-76735714D01*
X103810001Y-76878571D01*
X103881429Y-76950000D01*
X104024287Y-77021429D01*
X104381429Y-77021429D01*
X104595715Y-76950000D01*
X105810000Y-75592857D02*
X105667143Y-75521429D01*
X105381429Y-75521429D01*
X105238572Y-75592857D01*
X105167143Y-75735714D01*
X105167143Y-76307143D01*
X105238572Y-76450000D01*
X105381429Y-76521429D01*
X105667143Y-76521429D01*
X105810000Y-76450000D01*
X105881429Y-76307143D01*
X105881429Y-76164286D01*
X105167143Y-76021429D01*
X106524286Y-76521429D02*
X106524286Y-75021429D01*
X106524286Y-76450000D02*
X106667143Y-76521429D01*
X106952857Y-76521429D01*
X107095714Y-76450000D01*
X107167143Y-76378571D01*
X107238572Y-76235714D01*
X107238572Y-75807143D01*
X107167143Y-75664286D01*
X107095714Y-75592857D01*
X106952857Y-75521429D01*
X106667143Y-75521429D01*
X106524286Y-75592857D01*
X107667143Y-76521429D02*
X108238572Y-76521429D01*
X107881429Y-77021429D02*
X107881429Y-75735714D01*
X107952857Y-75592857D01*
X108095715Y-75521429D01*
X108238572Y-75521429D01*
X109810000Y-76878571D02*
X109881429Y-76950000D01*
X110024286Y-77021429D01*
X110381429Y-77021429D01*
X110524286Y-76950000D01*
X110595715Y-76878571D01*
X110667143Y-76735714D01*
X110667143Y-76592857D01*
X110595715Y-76378571D01*
X109738572Y-75521429D01*
X110667143Y-75521429D01*
X111595714Y-77021429D02*
X111738571Y-77021429D01*
X111881428Y-76950000D01*
X111952857Y-76878571D01*
X112024286Y-76735714D01*
X112095714Y-76450000D01*
X112095714Y-76092857D01*
X112024286Y-75807143D01*
X111952857Y-75664286D01*
X111881428Y-75592857D01*
X111738571Y-75521429D01*
X111595714Y-75521429D01*
X111452857Y-75592857D01*
X111381428Y-75664286D01*
X111310000Y-75807143D01*
X111238571Y-76092857D01*
X111238571Y-76450000D01*
X111310000Y-76735714D01*
X111381428Y-76878571D01*
X111452857Y-76950000D01*
X111595714Y-77021429D01*
X113524285Y-75521429D02*
X112667142Y-75521429D01*
X113095714Y-75521429D02*
X113095714Y-77021429D01*
X112952857Y-76807143D01*
X112809999Y-76664286D01*
X112667142Y-76592857D01*
X114024285Y-77021429D02*
X115024285Y-77021429D01*
X114381428Y-75521429D01*
M02*
