G04 #@! TF.FileFunction,Soldermask,Bot*
%FSLAX46Y46*%
G04 Gerber Fmt 4.6, Leading zero omitted, Abs format (unit mm)*
G04 Created by KiCad (PCBNEW 4.0.5+dfsg1-4) date Fri Sep 29 16:02:04 2017*
%MOMM*%
%LPD*%
G01*
G04 APERTURE LIST*
%ADD10C,0.100000*%
%ADD11C,5.000000*%
%ADD12O,1.524000X2.199640*%
%ADD13O,1.524000X2.197100*%
%ADD14R,1.727200X2.032000*%
%ADD15O,1.727200X2.032000*%
%ADD16C,3.500000*%
%ADD17C,1.998980*%
%ADD18R,2.000000X2.000000*%
%ADD19C,2.000000*%
G04 APERTURE END LIST*
D10*
D11*
X119380000Y-62230000D03*
X77470000Y-62230000D03*
X77470000Y-104140000D03*
D12*
X83820000Y-96520000D03*
X86360000Y-96520000D03*
X88900000Y-96520000D03*
X91440000Y-96520000D03*
X93980000Y-96520000D03*
X96520000Y-96520000D03*
X99060000Y-96520000D03*
X101600000Y-96520000D03*
X104140000Y-96520000D03*
X106680000Y-96520000D03*
X109220000Y-96520000D03*
X111760000Y-96520000D03*
X114300000Y-96520000D03*
X116840000Y-96520000D03*
X119380000Y-96520000D03*
X119380000Y-81280000D03*
X116840000Y-81280000D03*
X114300000Y-81280000D03*
X111760000Y-81280000D03*
D13*
X109220000Y-81280000D03*
X106680000Y-81280000D03*
X104140000Y-81280000D03*
X101600000Y-81280000D03*
X99060000Y-81280000D03*
X96520000Y-81280000D03*
X93980000Y-81280000D03*
X91440000Y-81280000D03*
X88900000Y-81280000D03*
X86360000Y-81280000D03*
X83820000Y-81280000D03*
D14*
X88900000Y-102870000D03*
D15*
X91440000Y-102870000D03*
X93980000Y-102870000D03*
X96520000Y-102870000D03*
X99060000Y-102870000D03*
X101600000Y-102870000D03*
X104140000Y-102870000D03*
X106680000Y-102870000D03*
X109220000Y-102870000D03*
D16*
X85790000Y-71120000D03*
X89790000Y-71120000D03*
X93790000Y-71220000D03*
X97790000Y-71120000D03*
X104290000Y-71120000D03*
X108290000Y-71120000D03*
X112290000Y-71120000D03*
D17*
X90170000Y-92710000D03*
X100330000Y-92710000D03*
X90170000Y-88900000D03*
X100330000Y-88900000D03*
X105410000Y-92710000D03*
X115570000Y-92710000D03*
X105410000Y-88900000D03*
X115570000Y-88900000D03*
D11*
X119380000Y-104140000D03*
D17*
X100330000Y-85090000D03*
X90170000Y-85090000D03*
X105410000Y-85090000D03*
X115570000Y-85090000D03*
D18*
X77470000Y-86360000D03*
D19*
X77470000Y-83820000D03*
D18*
X77470000Y-93980000D03*
D19*
X77470000Y-91440000D03*
M02*
