G04 #@! TF.FileFunction,Legend,Top*
%FSLAX46Y46*%
G04 Gerber Fmt 4.6, Leading zero omitted, Abs format (unit mm)*
G04 Created by KiCad (PCBNEW 4.0.5+dfsg1-4) date Fri Sep 29 16:02:04 2017*
%MOMM*%
%LPD*%
G01*
G04 APERTURE LIST*
%ADD10C,0.100000*%
%ADD11C,0.300000*%
%ADD12C,0.150000*%
%ADD13C,0.381000*%
G04 APERTURE END LIST*
D10*
D11*
X111895001Y-67123571D02*
X112895001Y-67123571D01*
X112252144Y-68623571D01*
X108870715Y-67123571D02*
X108585001Y-67123571D01*
X108442144Y-67195000D01*
X108370715Y-67266429D01*
X108227858Y-67480714D01*
X108156429Y-67766429D01*
X108156429Y-68337857D01*
X108227858Y-68480714D01*
X108299286Y-68552143D01*
X108442144Y-68623571D01*
X108727858Y-68623571D01*
X108870715Y-68552143D01*
X108942144Y-68480714D01*
X109013572Y-68337857D01*
X109013572Y-67980714D01*
X108942144Y-67837857D01*
X108870715Y-67766429D01*
X108727858Y-67695000D01*
X108442144Y-67695000D01*
X108299286Y-67766429D01*
X108227858Y-67837857D01*
X108156429Y-67980714D01*
X104497144Y-67123571D02*
X103782858Y-67123571D01*
X103711429Y-67837857D01*
X103782858Y-67766429D01*
X103925715Y-67695000D01*
X104282858Y-67695000D01*
X104425715Y-67766429D01*
X104497144Y-67837857D01*
X104568572Y-67980714D01*
X104568572Y-68337857D01*
X104497144Y-68480714D01*
X104425715Y-68552143D01*
X104282858Y-68623571D01*
X103925715Y-68623571D01*
X103782858Y-68552143D01*
X103711429Y-68480714D01*
X98075715Y-67623571D02*
X98075715Y-68623571D01*
X97718572Y-67052143D02*
X97361429Y-68123571D01*
X98290001Y-68123571D01*
X93480001Y-67123571D02*
X94408572Y-67123571D01*
X93908572Y-67695000D01*
X94122858Y-67695000D01*
X94265715Y-67766429D01*
X94337144Y-67837857D01*
X94408572Y-67980714D01*
X94408572Y-68337857D01*
X94337144Y-68480714D01*
X94265715Y-68552143D01*
X94122858Y-68623571D01*
X93694286Y-68623571D01*
X93551429Y-68552143D01*
X93480001Y-68480714D01*
X89106429Y-67266429D02*
X89177858Y-67195000D01*
X89320715Y-67123571D01*
X89677858Y-67123571D01*
X89820715Y-67195000D01*
X89892144Y-67266429D01*
X89963572Y-67409286D01*
X89963572Y-67552143D01*
X89892144Y-67766429D01*
X89035001Y-68623571D01*
X89963572Y-68623571D01*
X86153572Y-68623571D02*
X85296429Y-68623571D01*
X85725001Y-68623571D02*
X85725001Y-67123571D01*
X85582144Y-67337857D01*
X85439286Y-67480714D01*
X85296429Y-67552143D01*
X106537144Y-105866429D02*
X106394286Y-105795000D01*
X106322858Y-105723571D01*
X106251429Y-105580714D01*
X106251429Y-105509286D01*
X106322858Y-105366429D01*
X106394286Y-105295000D01*
X106537144Y-105223571D01*
X106822858Y-105223571D01*
X106965715Y-105295000D01*
X107037144Y-105366429D01*
X107108572Y-105509286D01*
X107108572Y-105580714D01*
X107037144Y-105723571D01*
X106965715Y-105795000D01*
X106822858Y-105866429D01*
X106537144Y-105866429D01*
X106394286Y-105937857D01*
X106322858Y-106009286D01*
X106251429Y-106152143D01*
X106251429Y-106437857D01*
X106322858Y-106580714D01*
X106394286Y-106652143D01*
X106537144Y-106723571D01*
X106822858Y-106723571D01*
X106965715Y-106652143D01*
X107037144Y-106580714D01*
X107108572Y-106437857D01*
X107108572Y-106152143D01*
X107037144Y-106009286D01*
X106965715Y-105937857D01*
X106822858Y-105866429D01*
X103640001Y-105223571D02*
X104640001Y-105223571D01*
X103997144Y-106723571D01*
X101885715Y-105223571D02*
X101600001Y-105223571D01*
X101457144Y-105295000D01*
X101385715Y-105366429D01*
X101242858Y-105580714D01*
X101171429Y-105866429D01*
X101171429Y-106437857D01*
X101242858Y-106580714D01*
X101314286Y-106652143D01*
X101457144Y-106723571D01*
X101742858Y-106723571D01*
X101885715Y-106652143D01*
X101957144Y-106580714D01*
X102028572Y-106437857D01*
X102028572Y-106080714D01*
X101957144Y-105937857D01*
X101885715Y-105866429D01*
X101742858Y-105795000D01*
X101457144Y-105795000D01*
X101314286Y-105866429D01*
X101242858Y-105937857D01*
X101171429Y-106080714D01*
X99417144Y-105223571D02*
X98702858Y-105223571D01*
X98631429Y-105937857D01*
X98702858Y-105866429D01*
X98845715Y-105795000D01*
X99202858Y-105795000D01*
X99345715Y-105866429D01*
X99417144Y-105937857D01*
X99488572Y-106080714D01*
X99488572Y-106437857D01*
X99417144Y-106580714D01*
X99345715Y-106652143D01*
X99202858Y-106723571D01*
X98845715Y-106723571D01*
X98702858Y-106652143D01*
X98631429Y-106580714D01*
X96805715Y-105723571D02*
X96805715Y-106723571D01*
X96448572Y-105152143D02*
X96091429Y-106223571D01*
X97020001Y-106223571D01*
X93480001Y-105223571D02*
X94408572Y-105223571D01*
X93908572Y-105795000D01*
X94122858Y-105795000D01*
X94265715Y-105866429D01*
X94337144Y-105937857D01*
X94408572Y-106080714D01*
X94408572Y-106437857D01*
X94337144Y-106580714D01*
X94265715Y-106652143D01*
X94122858Y-106723571D01*
X93694286Y-106723571D01*
X93551429Y-106652143D01*
X93480001Y-106580714D01*
X91011429Y-105366429D02*
X91082858Y-105295000D01*
X91225715Y-105223571D01*
X91582858Y-105223571D01*
X91725715Y-105295000D01*
X91797144Y-105366429D01*
X91868572Y-105509286D01*
X91868572Y-105652143D01*
X91797144Y-105866429D01*
X90940001Y-106723571D01*
X91868572Y-106723571D01*
X108934286Y-106723571D02*
X109220001Y-106723571D01*
X109362858Y-106652143D01*
X109434286Y-106580714D01*
X109577144Y-106366429D01*
X109648572Y-106080714D01*
X109648572Y-105509286D01*
X109577144Y-105366429D01*
X109505715Y-105295000D01*
X109362858Y-105223571D01*
X109077144Y-105223571D01*
X108934286Y-105295000D01*
X108862858Y-105366429D01*
X108791429Y-105509286D01*
X108791429Y-105866429D01*
X108862858Y-106009286D01*
X108934286Y-106080714D01*
X109077144Y-106152143D01*
X109362858Y-106152143D01*
X109505715Y-106080714D01*
X109577144Y-106009286D01*
X109648572Y-105866429D01*
X89328572Y-106723571D02*
X88471429Y-106723571D01*
X88900001Y-106723571D02*
X88900001Y-105223571D01*
X88757144Y-105437857D01*
X88614286Y-105580714D01*
X88471429Y-105652143D01*
X92373571Y-99945000D02*
X93087857Y-99945000D01*
X92230714Y-100373571D02*
X92730714Y-98873571D01*
X93230714Y-100373571D01*
X93516428Y-99373571D02*
X94087857Y-99373571D01*
X93730714Y-98873571D02*
X93730714Y-100159286D01*
X93802142Y-100302143D01*
X93945000Y-100373571D01*
X94087857Y-100373571D01*
X95230714Y-100373571D02*
X95230714Y-99587857D01*
X95159285Y-99445000D01*
X95016428Y-99373571D01*
X94730714Y-99373571D01*
X94587857Y-99445000D01*
X95230714Y-100302143D02*
X95087857Y-100373571D01*
X94730714Y-100373571D01*
X94587857Y-100302143D01*
X94516428Y-100159286D01*
X94516428Y-100016429D01*
X94587857Y-99873571D01*
X94730714Y-99802143D01*
X95087857Y-99802143D01*
X95230714Y-99730714D01*
X95945000Y-100373571D02*
X95945000Y-99373571D01*
X95945000Y-99659286D02*
X96016428Y-99516429D01*
X96087857Y-99445000D01*
X96230714Y-99373571D01*
X96373571Y-99373571D01*
X96873571Y-100373571D02*
X96873571Y-99373571D01*
X96873571Y-98873571D02*
X96802142Y-98945000D01*
X96873571Y-99016429D01*
X96944999Y-98945000D01*
X96873571Y-98873571D01*
X96873571Y-99016429D01*
X99159285Y-98873571D02*
X99159285Y-99945000D01*
X99087857Y-100159286D01*
X98945000Y-100302143D01*
X98730714Y-100373571D01*
X98587857Y-100373571D01*
X100087857Y-100373571D02*
X99944999Y-100302143D01*
X99873571Y-100230714D01*
X99802142Y-100087857D01*
X99802142Y-99659286D01*
X99873571Y-99516429D01*
X99944999Y-99445000D01*
X100087857Y-99373571D01*
X100302142Y-99373571D01*
X100444999Y-99445000D01*
X100516428Y-99516429D01*
X100587857Y-99659286D01*
X100587857Y-100087857D01*
X100516428Y-100230714D01*
X100444999Y-100302143D01*
X100302142Y-100373571D01*
X100087857Y-100373571D01*
X101087857Y-99373571D02*
X101445000Y-100373571D01*
X101802142Y-99373571D02*
X101445000Y-100373571D01*
X101302142Y-100730714D01*
X101230714Y-100802143D01*
X101087857Y-100873571D01*
X102302142Y-100302143D02*
X102444999Y-100373571D01*
X102730714Y-100373571D01*
X102873571Y-100302143D01*
X102944999Y-100159286D01*
X102944999Y-100087857D01*
X102873571Y-99945000D01*
X102730714Y-99873571D01*
X102516428Y-99873571D01*
X102373571Y-99802143D01*
X102302142Y-99659286D01*
X102302142Y-99587857D01*
X102373571Y-99445000D01*
X102516428Y-99373571D01*
X102730714Y-99373571D01*
X102873571Y-99445000D01*
X103373571Y-99373571D02*
X103945000Y-99373571D01*
X103587857Y-98873571D02*
X103587857Y-100159286D01*
X103659285Y-100302143D01*
X103802143Y-100373571D01*
X103945000Y-100373571D01*
X104445000Y-100373571D02*
X104445000Y-99373571D01*
X104445000Y-98873571D02*
X104373571Y-98945000D01*
X104445000Y-99016429D01*
X104516428Y-98945000D01*
X104445000Y-98873571D01*
X104445000Y-99016429D01*
X105802143Y-100302143D02*
X105659286Y-100373571D01*
X105373572Y-100373571D01*
X105230714Y-100302143D01*
X105159286Y-100230714D01*
X105087857Y-100087857D01*
X105087857Y-99659286D01*
X105159286Y-99516429D01*
X105230714Y-99445000D01*
X105373572Y-99373571D01*
X105659286Y-99373571D01*
X105802143Y-99445000D01*
X106445000Y-100373571D02*
X106445000Y-98873571D01*
X106587857Y-99802143D02*
X107016428Y-100373571D01*
X107016428Y-99373571D02*
X106445000Y-99945000D01*
X90310001Y-64107143D02*
X90524287Y-64178571D01*
X90881430Y-64178571D01*
X91024287Y-64107143D01*
X91095716Y-64035714D01*
X91167144Y-63892857D01*
X91167144Y-63750000D01*
X91095716Y-63607143D01*
X91024287Y-63535714D01*
X90881430Y-63464286D01*
X90595716Y-63392857D01*
X90452858Y-63321429D01*
X90381430Y-63250000D01*
X90310001Y-63107143D01*
X90310001Y-62964286D01*
X90381430Y-62821429D01*
X90452858Y-62750000D01*
X90595716Y-62678571D01*
X90952858Y-62678571D01*
X91167144Y-62750000D01*
X91810001Y-64178571D02*
X91810001Y-62678571D01*
X92667144Y-64178571D01*
X92667144Y-62678571D01*
X93381430Y-63392857D02*
X93881430Y-63392857D01*
X94095716Y-64178571D02*
X93381430Y-64178571D01*
X93381430Y-62678571D01*
X94095716Y-62678571D01*
X94667144Y-64107143D02*
X94881430Y-64178571D01*
X95238573Y-64178571D01*
X95381430Y-64107143D01*
X95452859Y-64035714D01*
X95524287Y-63892857D01*
X95524287Y-63750000D01*
X95452859Y-63607143D01*
X95381430Y-63535714D01*
X95238573Y-63464286D01*
X94952859Y-63392857D01*
X94810001Y-63321429D01*
X94738573Y-63250000D01*
X94667144Y-63107143D01*
X94667144Y-62964286D01*
X94738573Y-62821429D01*
X94810001Y-62750000D01*
X94952859Y-62678571D01*
X95310001Y-62678571D01*
X95524287Y-62750000D01*
X98167144Y-64035714D02*
X98095715Y-64107143D01*
X97881429Y-64178571D01*
X97738572Y-64178571D01*
X97524287Y-64107143D01*
X97381429Y-63964286D01*
X97310001Y-63821429D01*
X97238572Y-63535714D01*
X97238572Y-63321429D01*
X97310001Y-63035714D01*
X97381429Y-62892857D01*
X97524287Y-62750000D01*
X97738572Y-62678571D01*
X97881429Y-62678571D01*
X98095715Y-62750000D01*
X98167144Y-62821429D01*
X99024287Y-64178571D02*
X98881429Y-64107143D01*
X98810001Y-64035714D01*
X98738572Y-63892857D01*
X98738572Y-63464286D01*
X98810001Y-63321429D01*
X98881429Y-63250000D01*
X99024287Y-63178571D01*
X99238572Y-63178571D01*
X99381429Y-63250000D01*
X99452858Y-63321429D01*
X99524287Y-63464286D01*
X99524287Y-63892857D01*
X99452858Y-64035714D01*
X99381429Y-64107143D01*
X99238572Y-64178571D01*
X99024287Y-64178571D01*
X100167144Y-63178571D02*
X100167144Y-64178571D01*
X100167144Y-63321429D02*
X100238572Y-63250000D01*
X100381430Y-63178571D01*
X100595715Y-63178571D01*
X100738572Y-63250000D01*
X100810001Y-63392857D01*
X100810001Y-64178571D01*
X101310001Y-63178571D02*
X101881430Y-63178571D01*
X101524287Y-62678571D02*
X101524287Y-63964286D01*
X101595715Y-64107143D01*
X101738573Y-64178571D01*
X101881430Y-64178571D01*
X102381430Y-64178571D02*
X102381430Y-63178571D01*
X102381430Y-63464286D02*
X102452858Y-63321429D01*
X102524287Y-63250000D01*
X102667144Y-63178571D01*
X102810001Y-63178571D01*
X103524287Y-64178571D02*
X103381429Y-64107143D01*
X103310001Y-64035714D01*
X103238572Y-63892857D01*
X103238572Y-63464286D01*
X103310001Y-63321429D01*
X103381429Y-63250000D01*
X103524287Y-63178571D01*
X103738572Y-63178571D01*
X103881429Y-63250000D01*
X103952858Y-63321429D01*
X104024287Y-63464286D01*
X104024287Y-63892857D01*
X103952858Y-64035714D01*
X103881429Y-64107143D01*
X103738572Y-64178571D01*
X103524287Y-64178571D01*
X104881430Y-64178571D02*
X104738572Y-64107143D01*
X104667144Y-63964286D01*
X104667144Y-62678571D01*
X105667144Y-64178571D02*
X105524286Y-64107143D01*
X105452858Y-63964286D01*
X105452858Y-62678571D01*
X106810000Y-64107143D02*
X106667143Y-64178571D01*
X106381429Y-64178571D01*
X106238572Y-64107143D01*
X106167143Y-63964286D01*
X106167143Y-63392857D01*
X106238572Y-63250000D01*
X106381429Y-63178571D01*
X106667143Y-63178571D01*
X106810000Y-63250000D01*
X106881429Y-63392857D01*
X106881429Y-63535714D01*
X106167143Y-63678571D01*
X107524286Y-64178571D02*
X107524286Y-63178571D01*
X107524286Y-63464286D02*
X107595714Y-63321429D01*
X107667143Y-63250000D01*
X107810000Y-63178571D01*
X107952857Y-63178571D01*
X120463571Y-90792857D02*
X121677857Y-90792857D01*
X121820714Y-90721429D01*
X121892143Y-90650000D01*
X121963571Y-90507143D01*
X121963571Y-90221429D01*
X121892143Y-90078571D01*
X121820714Y-90007143D01*
X121677857Y-89935714D01*
X120463571Y-89935714D01*
X121892143Y-89292857D02*
X121963571Y-89078571D01*
X121963571Y-88721428D01*
X121892143Y-88578571D01*
X121820714Y-88507142D01*
X121677857Y-88435714D01*
X121535000Y-88435714D01*
X121392143Y-88507142D01*
X121320714Y-88578571D01*
X121249286Y-88721428D01*
X121177857Y-89007142D01*
X121106429Y-89150000D01*
X121035000Y-89221428D01*
X120892143Y-89292857D01*
X120749286Y-89292857D01*
X120606429Y-89221428D01*
X120535000Y-89150000D01*
X120463571Y-89007142D01*
X120463571Y-88650000D01*
X120535000Y-88435714D01*
X121177857Y-87292857D02*
X121249286Y-87078571D01*
X121320714Y-87007143D01*
X121463571Y-86935714D01*
X121677857Y-86935714D01*
X121820714Y-87007143D01*
X121892143Y-87078571D01*
X121963571Y-87221429D01*
X121963571Y-87792857D01*
X120463571Y-87792857D01*
X120463571Y-87292857D01*
X120535000Y-87150000D01*
X120606429Y-87078571D01*
X120749286Y-87007143D01*
X120892143Y-87007143D01*
X121035000Y-87078571D01*
X121106429Y-87150000D01*
X121177857Y-87292857D01*
X121177857Y-87792857D01*
D12*
X121666000Y-62230000D02*
G75*
G03X121666000Y-62230000I-2286000J0D01*
G01*
X79756000Y-62230000D02*
G75*
G03X79756000Y-62230000I-2286000J0D01*
G01*
X79756000Y-104140000D02*
G75*
G03X79756000Y-104140000I-2286000J0D01*
G01*
D13*
X85090000Y-87630000D02*
X80010000Y-87630000D01*
X85090000Y-90170000D02*
X80010000Y-90170000D01*
X82550000Y-85090000D02*
X82550000Y-92710000D01*
X80010000Y-85090000D02*
X85090000Y-85090000D01*
X85090000Y-85090000D02*
X85090000Y-92710000D01*
X85090000Y-92710000D02*
X80010000Y-92710000D01*
X123190000Y-80010000D02*
X80010000Y-80010000D01*
X80010000Y-97790000D02*
X123190000Y-97790000D01*
X80010000Y-97790000D02*
X80010000Y-80010000D01*
X123190000Y-97790000D02*
X123190000Y-80010000D01*
X82550000Y-81280000D02*
G75*
G03X82550000Y-81280000I-1270000J0D01*
G01*
X82550000Y-96520000D02*
G75*
G03X82550000Y-96520000I-1270000J0D01*
G01*
X123190000Y-81280000D02*
G75*
G03X123190000Y-81280000I-1270000J0D01*
G01*
X123190000Y-96520000D02*
G75*
G03X123190000Y-96520000I-1270000J0D01*
G01*
X120650000Y-82550000D02*
X82550000Y-82550000D01*
X82550000Y-95250000D02*
X120650000Y-95250000D01*
X120650000Y-97790000D02*
X120650000Y-95250000D01*
X120650000Y-82550000D02*
X120650000Y-80010000D01*
X82550000Y-80010000D02*
X82550000Y-82550000D01*
X82550000Y-97790000D02*
X82550000Y-95250000D01*
D12*
X90170000Y-101600000D02*
X110490000Y-101600000D01*
X110490000Y-101600000D02*
X110490000Y-104140000D01*
X110490000Y-104140000D02*
X90170000Y-104140000D01*
X87350000Y-101320000D02*
X88900000Y-101320000D01*
X90170000Y-101600000D02*
X90170000Y-104140000D01*
X88900000Y-104420000D02*
X87350000Y-104420000D01*
X87350000Y-104420000D02*
X87350000Y-101320000D01*
X79990000Y-77320000D02*
X112390000Y-77320000D01*
X79990000Y-64920000D02*
X112290000Y-64920000D01*
X112340000Y-77320000D02*
G75*
G03X118540000Y-71120000I0J6200000D01*
G01*
X118540000Y-71120000D02*
G75*
G03X112340000Y-64920000I-6200000J0D01*
G01*
X79990000Y-77320000D02*
X79990000Y-64920000D01*
X92710000Y-91440000D02*
X97790000Y-91440000D01*
X97790000Y-91440000D02*
X97790000Y-93980000D01*
X97790000Y-93980000D02*
X92710000Y-93980000D01*
X92710000Y-93980000D02*
X92710000Y-91440000D01*
X92710000Y-92710000D02*
X91440000Y-92710000D01*
X97790000Y-92710000D02*
X99060000Y-92710000D01*
X92710000Y-87630000D02*
X97790000Y-87630000D01*
X97790000Y-87630000D02*
X97790000Y-90170000D01*
X97790000Y-90170000D02*
X92710000Y-90170000D01*
X92710000Y-90170000D02*
X92710000Y-87630000D01*
X92710000Y-88900000D02*
X91440000Y-88900000D01*
X97790000Y-88900000D02*
X99060000Y-88900000D01*
X107950000Y-91440000D02*
X113030000Y-91440000D01*
X113030000Y-91440000D02*
X113030000Y-93980000D01*
X113030000Y-93980000D02*
X107950000Y-93980000D01*
X107950000Y-93980000D02*
X107950000Y-91440000D01*
X107950000Y-92710000D02*
X106680000Y-92710000D01*
X113030000Y-92710000D02*
X114300000Y-92710000D01*
X107950000Y-87630000D02*
X113030000Y-87630000D01*
X113030000Y-87630000D02*
X113030000Y-90170000D01*
X113030000Y-90170000D02*
X107950000Y-90170000D01*
X107950000Y-90170000D02*
X107950000Y-87630000D01*
X107950000Y-88900000D02*
X106680000Y-88900000D01*
X113030000Y-88900000D02*
X114300000Y-88900000D01*
X121666000Y-104140000D02*
G75*
G03X121666000Y-104140000I-2286000J0D01*
G01*
X97790000Y-86360000D02*
X92710000Y-86360000D01*
X92710000Y-86360000D02*
X92710000Y-83820000D01*
X92710000Y-83820000D02*
X97790000Y-83820000D01*
X97790000Y-83820000D02*
X97790000Y-86360000D01*
X97790000Y-85090000D02*
X99060000Y-85090000D01*
X92710000Y-85090000D02*
X91440000Y-85090000D01*
X107950000Y-83820000D02*
X113030000Y-83820000D01*
X113030000Y-83820000D02*
X113030000Y-86360000D01*
X113030000Y-86360000D02*
X107950000Y-86360000D01*
X107950000Y-86360000D02*
X107950000Y-83820000D01*
X107950000Y-85090000D02*
X106680000Y-85090000D01*
X113030000Y-85090000D02*
X114300000Y-85090000D01*
X78784000Y-86559000D02*
X78584000Y-86559000D01*
X76190000Y-86559000D02*
X76370000Y-86559000D01*
X76500357Y-83331256D02*
G75*
G03X76184000Y-86559000I1003643J-1727744D01*
G01*
X76370932Y-84006994D02*
G75*
G03X76370000Y-86110000I1133068J-1052006D01*
G01*
X78810726Y-86546220D02*
G75*
G03X78464000Y-83309000I-1306726J1497220D01*
G01*
X78583253Y-86072889D02*
G75*
G03X78564000Y-84025000I-1079253J1013889D01*
G01*
X78784000Y-94179000D02*
X78584000Y-94179000D01*
X76190000Y-94179000D02*
X76370000Y-94179000D01*
X76500357Y-90951256D02*
G75*
G03X76184000Y-94179000I1003643J-1727744D01*
G01*
X76370932Y-91626994D02*
G75*
G03X76370000Y-93730000I1133068J-1052006D01*
G01*
X78810726Y-94166220D02*
G75*
G03X78464000Y-90929000I-1306726J1497220D01*
G01*
X78583253Y-93692889D02*
G75*
G03X78564000Y-91645000I-1079253J1013889D01*
G01*
X87463334Y-93162381D02*
X87130000Y-92686190D01*
X86891905Y-93162381D02*
X86891905Y-92162381D01*
X87272858Y-92162381D01*
X87368096Y-92210000D01*
X87415715Y-92257619D01*
X87463334Y-92352857D01*
X87463334Y-92495714D01*
X87415715Y-92590952D01*
X87368096Y-92638571D01*
X87272858Y-92686190D01*
X86891905Y-92686190D01*
X88415715Y-93162381D02*
X87844286Y-93162381D01*
X88130000Y-93162381D02*
X88130000Y-92162381D01*
X88034762Y-92305238D01*
X87939524Y-92400476D01*
X87844286Y-92448095D01*
X93511905Y-92257619D02*
X93559524Y-92210000D01*
X93654762Y-92162381D01*
X93892858Y-92162381D01*
X93988096Y-92210000D01*
X94035715Y-92257619D01*
X94083334Y-92352857D01*
X94083334Y-92448095D01*
X94035715Y-92590952D01*
X93464286Y-93162381D01*
X94083334Y-93162381D01*
X94702381Y-92162381D02*
X94797620Y-92162381D01*
X94892858Y-92210000D01*
X94940477Y-92257619D01*
X94988096Y-92352857D01*
X95035715Y-92543333D01*
X95035715Y-92781429D01*
X94988096Y-92971905D01*
X94940477Y-93067143D01*
X94892858Y-93114762D01*
X94797620Y-93162381D01*
X94702381Y-93162381D01*
X94607143Y-93114762D01*
X94559524Y-93067143D01*
X94511905Y-92971905D01*
X94464286Y-92781429D01*
X94464286Y-92543333D01*
X94511905Y-92352857D01*
X94559524Y-92257619D01*
X94607143Y-92210000D01*
X94702381Y-92162381D01*
X95654762Y-92162381D02*
X95750001Y-92162381D01*
X95845239Y-92210000D01*
X95892858Y-92257619D01*
X95940477Y-92352857D01*
X95988096Y-92543333D01*
X95988096Y-92781429D01*
X95940477Y-92971905D01*
X95892858Y-93067143D01*
X95845239Y-93114762D01*
X95750001Y-93162381D01*
X95654762Y-93162381D01*
X95559524Y-93114762D01*
X95511905Y-93067143D01*
X95464286Y-92971905D01*
X95416667Y-92781429D01*
X95416667Y-92543333D01*
X95464286Y-92352857D01*
X95511905Y-92257619D01*
X95559524Y-92210000D01*
X95654762Y-92162381D01*
X96416667Y-93162381D02*
X96416667Y-92162381D01*
X96988096Y-93162381D02*
X96559524Y-92590952D01*
X96988096Y-92162381D02*
X96416667Y-92733810D01*
X87463334Y-89352381D02*
X87130000Y-88876190D01*
X86891905Y-89352381D02*
X86891905Y-88352381D01*
X87272858Y-88352381D01*
X87368096Y-88400000D01*
X87415715Y-88447619D01*
X87463334Y-88542857D01*
X87463334Y-88685714D01*
X87415715Y-88780952D01*
X87368096Y-88828571D01*
X87272858Y-88876190D01*
X86891905Y-88876190D01*
X87844286Y-88447619D02*
X87891905Y-88400000D01*
X87987143Y-88352381D01*
X88225239Y-88352381D01*
X88320477Y-88400000D01*
X88368096Y-88447619D01*
X88415715Y-88542857D01*
X88415715Y-88638095D01*
X88368096Y-88780952D01*
X87796667Y-89352381D01*
X88415715Y-89352381D01*
X94083334Y-89352381D02*
X93511905Y-89352381D01*
X93797619Y-89352381D02*
X93797619Y-88352381D01*
X93702381Y-88495238D01*
X93607143Y-88590476D01*
X93511905Y-88638095D01*
X94702381Y-88352381D02*
X94797620Y-88352381D01*
X94892858Y-88400000D01*
X94940477Y-88447619D01*
X94988096Y-88542857D01*
X95035715Y-88733333D01*
X95035715Y-88971429D01*
X94988096Y-89161905D01*
X94940477Y-89257143D01*
X94892858Y-89304762D01*
X94797620Y-89352381D01*
X94702381Y-89352381D01*
X94607143Y-89304762D01*
X94559524Y-89257143D01*
X94511905Y-89161905D01*
X94464286Y-88971429D01*
X94464286Y-88733333D01*
X94511905Y-88542857D01*
X94559524Y-88447619D01*
X94607143Y-88400000D01*
X94702381Y-88352381D01*
X95654762Y-88352381D02*
X95750001Y-88352381D01*
X95845239Y-88400000D01*
X95892858Y-88447619D01*
X95940477Y-88542857D01*
X95988096Y-88733333D01*
X95988096Y-88971429D01*
X95940477Y-89161905D01*
X95892858Y-89257143D01*
X95845239Y-89304762D01*
X95750001Y-89352381D01*
X95654762Y-89352381D01*
X95559524Y-89304762D01*
X95511905Y-89257143D01*
X95464286Y-89161905D01*
X95416667Y-88971429D01*
X95416667Y-88733333D01*
X95464286Y-88542857D01*
X95511905Y-88447619D01*
X95559524Y-88400000D01*
X95654762Y-88352381D01*
X96416667Y-89352381D02*
X96416667Y-88352381D01*
X96988096Y-89352381D02*
X96559524Y-88780952D01*
X96988096Y-88352381D02*
X96416667Y-88923810D01*
X117943334Y-93162381D02*
X117610000Y-92686190D01*
X117371905Y-93162381D02*
X117371905Y-92162381D01*
X117752858Y-92162381D01*
X117848096Y-92210000D01*
X117895715Y-92257619D01*
X117943334Y-92352857D01*
X117943334Y-92495714D01*
X117895715Y-92590952D01*
X117848096Y-92638571D01*
X117752858Y-92686190D01*
X117371905Y-92686190D01*
X118848096Y-92162381D02*
X118371905Y-92162381D01*
X118324286Y-92638571D01*
X118371905Y-92590952D01*
X118467143Y-92543333D01*
X118705239Y-92543333D01*
X118800477Y-92590952D01*
X118848096Y-92638571D01*
X118895715Y-92733810D01*
X118895715Y-92971905D01*
X118848096Y-93067143D01*
X118800477Y-93114762D01*
X118705239Y-93162381D01*
X118467143Y-93162381D01*
X118371905Y-93114762D01*
X118324286Y-93067143D01*
X108751905Y-92257619D02*
X108799524Y-92210000D01*
X108894762Y-92162381D01*
X109132858Y-92162381D01*
X109228096Y-92210000D01*
X109275715Y-92257619D01*
X109323334Y-92352857D01*
X109323334Y-92448095D01*
X109275715Y-92590952D01*
X108704286Y-93162381D01*
X109323334Y-93162381D01*
X109942381Y-92162381D02*
X110037620Y-92162381D01*
X110132858Y-92210000D01*
X110180477Y-92257619D01*
X110228096Y-92352857D01*
X110275715Y-92543333D01*
X110275715Y-92781429D01*
X110228096Y-92971905D01*
X110180477Y-93067143D01*
X110132858Y-93114762D01*
X110037620Y-93162381D01*
X109942381Y-93162381D01*
X109847143Y-93114762D01*
X109799524Y-93067143D01*
X109751905Y-92971905D01*
X109704286Y-92781429D01*
X109704286Y-92543333D01*
X109751905Y-92352857D01*
X109799524Y-92257619D01*
X109847143Y-92210000D01*
X109942381Y-92162381D01*
X110894762Y-92162381D02*
X110990001Y-92162381D01*
X111085239Y-92210000D01*
X111132858Y-92257619D01*
X111180477Y-92352857D01*
X111228096Y-92543333D01*
X111228096Y-92781429D01*
X111180477Y-92971905D01*
X111132858Y-93067143D01*
X111085239Y-93114762D01*
X110990001Y-93162381D01*
X110894762Y-93162381D01*
X110799524Y-93114762D01*
X110751905Y-93067143D01*
X110704286Y-92971905D01*
X110656667Y-92781429D01*
X110656667Y-92543333D01*
X110704286Y-92352857D01*
X110751905Y-92257619D01*
X110799524Y-92210000D01*
X110894762Y-92162381D01*
X111656667Y-93162381D02*
X111656667Y-92162381D01*
X112228096Y-93162381D02*
X111799524Y-92590952D01*
X112228096Y-92162381D02*
X111656667Y-92733810D01*
X117943334Y-89352381D02*
X117610000Y-88876190D01*
X117371905Y-89352381D02*
X117371905Y-88352381D01*
X117752858Y-88352381D01*
X117848096Y-88400000D01*
X117895715Y-88447619D01*
X117943334Y-88542857D01*
X117943334Y-88685714D01*
X117895715Y-88780952D01*
X117848096Y-88828571D01*
X117752858Y-88876190D01*
X117371905Y-88876190D01*
X118800477Y-88352381D02*
X118610000Y-88352381D01*
X118514762Y-88400000D01*
X118467143Y-88447619D01*
X118371905Y-88590476D01*
X118324286Y-88780952D01*
X118324286Y-89161905D01*
X118371905Y-89257143D01*
X118419524Y-89304762D01*
X118514762Y-89352381D01*
X118705239Y-89352381D01*
X118800477Y-89304762D01*
X118848096Y-89257143D01*
X118895715Y-89161905D01*
X118895715Y-88923810D01*
X118848096Y-88828571D01*
X118800477Y-88780952D01*
X118705239Y-88733333D01*
X118514762Y-88733333D01*
X118419524Y-88780952D01*
X118371905Y-88828571D01*
X118324286Y-88923810D01*
X109323334Y-89352381D02*
X108751905Y-89352381D01*
X109037619Y-89352381D02*
X109037619Y-88352381D01*
X108942381Y-88495238D01*
X108847143Y-88590476D01*
X108751905Y-88638095D01*
X109942381Y-88352381D02*
X110037620Y-88352381D01*
X110132858Y-88400000D01*
X110180477Y-88447619D01*
X110228096Y-88542857D01*
X110275715Y-88733333D01*
X110275715Y-88971429D01*
X110228096Y-89161905D01*
X110180477Y-89257143D01*
X110132858Y-89304762D01*
X110037620Y-89352381D01*
X109942381Y-89352381D01*
X109847143Y-89304762D01*
X109799524Y-89257143D01*
X109751905Y-89161905D01*
X109704286Y-88971429D01*
X109704286Y-88733333D01*
X109751905Y-88542857D01*
X109799524Y-88447619D01*
X109847143Y-88400000D01*
X109942381Y-88352381D01*
X110894762Y-88352381D02*
X110990001Y-88352381D01*
X111085239Y-88400000D01*
X111132858Y-88447619D01*
X111180477Y-88542857D01*
X111228096Y-88733333D01*
X111228096Y-88971429D01*
X111180477Y-89161905D01*
X111132858Y-89257143D01*
X111085239Y-89304762D01*
X110990001Y-89352381D01*
X110894762Y-89352381D01*
X110799524Y-89304762D01*
X110751905Y-89257143D01*
X110704286Y-89161905D01*
X110656667Y-88971429D01*
X110656667Y-88733333D01*
X110704286Y-88542857D01*
X110751905Y-88447619D01*
X110799524Y-88400000D01*
X110894762Y-88352381D01*
X111656667Y-89352381D02*
X111656667Y-88352381D01*
X112228096Y-89352381D02*
X111799524Y-88780952D01*
X112228096Y-88352381D02*
X111656667Y-88923810D01*
X87463334Y-85542381D02*
X87130000Y-85066190D01*
X86891905Y-85542381D02*
X86891905Y-84542381D01*
X87272858Y-84542381D01*
X87368096Y-84590000D01*
X87415715Y-84637619D01*
X87463334Y-84732857D01*
X87463334Y-84875714D01*
X87415715Y-84970952D01*
X87368096Y-85018571D01*
X87272858Y-85066190D01*
X86891905Y-85066190D01*
X87796667Y-84542381D02*
X88415715Y-84542381D01*
X88082381Y-84923333D01*
X88225239Y-84923333D01*
X88320477Y-84970952D01*
X88368096Y-85018571D01*
X88415715Y-85113810D01*
X88415715Y-85351905D01*
X88368096Y-85447143D01*
X88320477Y-85494762D01*
X88225239Y-85542381D01*
X87939524Y-85542381D01*
X87844286Y-85494762D01*
X87796667Y-85447143D01*
X95035715Y-85542381D02*
X94464286Y-85542381D01*
X94750000Y-85542381D02*
X94750000Y-84542381D01*
X94654762Y-84685238D01*
X94559524Y-84780476D01*
X94464286Y-84828095D01*
X95464286Y-85542381D02*
X95464286Y-84542381D01*
X96035715Y-85542381D02*
X95607143Y-84970952D01*
X96035715Y-84542381D02*
X95464286Y-85113810D01*
X117943334Y-85542381D02*
X117610000Y-85066190D01*
X117371905Y-85542381D02*
X117371905Y-84542381D01*
X117752858Y-84542381D01*
X117848096Y-84590000D01*
X117895715Y-84637619D01*
X117943334Y-84732857D01*
X117943334Y-84875714D01*
X117895715Y-84970952D01*
X117848096Y-85018571D01*
X117752858Y-85066190D01*
X117371905Y-85066190D01*
X118800477Y-84875714D02*
X118800477Y-85542381D01*
X118562381Y-84494762D02*
X118324286Y-85209048D01*
X118943334Y-85209048D01*
X110275715Y-85542381D02*
X109704286Y-85542381D01*
X109990000Y-85542381D02*
X109990000Y-84542381D01*
X109894762Y-84685238D01*
X109799524Y-84780476D01*
X109704286Y-84828095D01*
X110704286Y-85542381D02*
X110704286Y-84542381D01*
X111275715Y-85542381D02*
X110847143Y-84970952D01*
X111275715Y-84542381D02*
X110704286Y-85113810D01*
X77922381Y-82018095D02*
X76922381Y-82018095D01*
X76922381Y-81780000D01*
X76970000Y-81637142D01*
X77065238Y-81541904D01*
X77160476Y-81494285D01*
X77350952Y-81446666D01*
X77493810Y-81446666D01*
X77684286Y-81494285D01*
X77779524Y-81541904D01*
X77874762Y-81637142D01*
X77922381Y-81780000D01*
X77922381Y-82018095D01*
X77922381Y-80494285D02*
X77922381Y-81065714D01*
X77922381Y-80780000D02*
X76922381Y-80780000D01*
X77065238Y-80875238D01*
X77160476Y-80970476D01*
X77208095Y-81065714D01*
X77922381Y-97258095D02*
X76922381Y-97258095D01*
X76922381Y-97020000D01*
X76970000Y-96877142D01*
X77065238Y-96781904D01*
X77160476Y-96734285D01*
X77350952Y-96686666D01*
X77493810Y-96686666D01*
X77684286Y-96734285D01*
X77779524Y-96781904D01*
X77874762Y-96877142D01*
X77922381Y-97020000D01*
X77922381Y-97258095D01*
X77017619Y-96305714D02*
X76970000Y-96258095D01*
X76922381Y-96162857D01*
X76922381Y-95924761D01*
X76970000Y-95829523D01*
X77017619Y-95781904D01*
X77112857Y-95734285D01*
X77208095Y-95734285D01*
X77350952Y-95781904D01*
X77922381Y-96353333D01*
X77922381Y-95734285D01*
M02*
