G04 #@! TF.FileFunction,Copper,L1,Top,Signal*
%FSLAX46Y46*%
G04 Gerber Fmt 4.6, Leading zero omitted, Abs format (unit mm)*
G04 Created by KiCad (PCBNEW 4.0.5+dfsg1-4) date Fri Sep 29 16:02:04 2017*
%MOMM*%
%LPD*%
G01*
G04 APERTURE LIST*
%ADD10C,0.100000*%
%ADD11C,5.000000*%
%ADD12O,1.524000X2.199640*%
%ADD13O,1.524000X2.197100*%
%ADD14R,1.727200X2.032000*%
%ADD15O,1.727200X2.032000*%
%ADD16C,3.500000*%
%ADD17C,1.998980*%
%ADD18R,2.000000X2.000000*%
%ADD19C,2.000000*%
%ADD20C,0.304800*%
%ADD21C,0.254000*%
G04 APERTURE END LIST*
D10*
D11*
X119380000Y-62230000D03*
X77470000Y-62230000D03*
X77470000Y-104140000D03*
D12*
X83820000Y-96520000D03*
X86360000Y-96520000D03*
X88900000Y-96520000D03*
X91440000Y-96520000D03*
X93980000Y-96520000D03*
X96520000Y-96520000D03*
X99060000Y-96520000D03*
X101600000Y-96520000D03*
X104140000Y-96520000D03*
X106680000Y-96520000D03*
X109220000Y-96520000D03*
X111760000Y-96520000D03*
X114300000Y-96520000D03*
X116840000Y-96520000D03*
X119380000Y-96520000D03*
X119380000Y-81280000D03*
X116840000Y-81280000D03*
X114300000Y-81280000D03*
X111760000Y-81280000D03*
D13*
X109220000Y-81280000D03*
X106680000Y-81280000D03*
X104140000Y-81280000D03*
X101600000Y-81280000D03*
X99060000Y-81280000D03*
X96520000Y-81280000D03*
X93980000Y-81280000D03*
X91440000Y-81280000D03*
X88900000Y-81280000D03*
X86360000Y-81280000D03*
X83820000Y-81280000D03*
D14*
X88900000Y-102870000D03*
D15*
X91440000Y-102870000D03*
X93980000Y-102870000D03*
X96520000Y-102870000D03*
X99060000Y-102870000D03*
X101600000Y-102870000D03*
X104140000Y-102870000D03*
X106680000Y-102870000D03*
X109220000Y-102870000D03*
D16*
X85790000Y-71120000D03*
X89790000Y-71120000D03*
X93790000Y-71220000D03*
X97790000Y-71120000D03*
X104290000Y-71120000D03*
X108290000Y-71120000D03*
X112290000Y-71120000D03*
D17*
X90170000Y-92710000D03*
X100330000Y-92710000D03*
X90170000Y-88900000D03*
X100330000Y-88900000D03*
X105410000Y-92710000D03*
X115570000Y-92710000D03*
X105410000Y-88900000D03*
X115570000Y-88900000D03*
D11*
X119380000Y-104140000D03*
D17*
X100330000Y-85090000D03*
X90170000Y-85090000D03*
X105410000Y-85090000D03*
X115570000Y-85090000D03*
D18*
X77470000Y-86360000D03*
D19*
X77470000Y-83820000D03*
D18*
X77470000Y-93980000D03*
D19*
X77470000Y-91440000D03*
D20*
X115570000Y-92710000D02*
X115570000Y-104140000D01*
X99060000Y-104140000D02*
X99060000Y-102870000D01*
X100330000Y-105410000D02*
X99060000Y-104140000D01*
X114300000Y-105410000D02*
X100330000Y-105410000D01*
X115570000Y-104140000D02*
X114300000Y-105410000D01*
X101600000Y-96520000D02*
X101600000Y-95885000D01*
X101600000Y-95885000D02*
X102870000Y-94615000D01*
X102870000Y-94615000D02*
X113665000Y-94615000D01*
X113665000Y-94615000D02*
X115570000Y-92710000D01*
X99060000Y-96520000D02*
X99060000Y-99060000D01*
X109220000Y-101600000D02*
X109220000Y-102870000D01*
X107950000Y-100330000D02*
X109220000Y-101600000D01*
X100330000Y-100330000D02*
X107950000Y-100330000D01*
X99060000Y-99060000D02*
X100330000Y-100330000D01*
D21*
G36*
X116723826Y-60451847D02*
X116245546Y-61603674D01*
X116244457Y-62850854D01*
X116720727Y-64003515D01*
X117601847Y-64886174D01*
X118753674Y-65364454D01*
X120000854Y-65365543D01*
X121153515Y-64889273D01*
X121793000Y-64250903D01*
X121793000Y-102119782D01*
X121158153Y-101483826D01*
X120006326Y-101005546D01*
X118759146Y-101004457D01*
X117606485Y-101480727D01*
X116723826Y-102361847D01*
X116357400Y-103244299D01*
X116357400Y-98192812D01*
X116840000Y-98288807D01*
X117374609Y-98182467D01*
X117827828Y-97879635D01*
X118110000Y-97457336D01*
X118392172Y-97879635D01*
X118845391Y-98182467D01*
X119380000Y-98288807D01*
X119914609Y-98182467D01*
X120367828Y-97879635D01*
X120670660Y-97426416D01*
X120777000Y-96891807D01*
X120777000Y-96148193D01*
X120670660Y-95613584D01*
X120367828Y-95160365D01*
X119914609Y-94857533D01*
X119380000Y-94751193D01*
X118845391Y-94857533D01*
X118392172Y-95160365D01*
X118110000Y-95582664D01*
X117827828Y-95160365D01*
X117374609Y-94857533D01*
X116840000Y-94751193D01*
X116357400Y-94847188D01*
X116357400Y-94153175D01*
X116494655Y-94096462D01*
X116954846Y-93637073D01*
X117204206Y-93036547D01*
X117204774Y-92386306D01*
X116956462Y-91785345D01*
X116497073Y-91325154D01*
X115896547Y-91075794D01*
X115246306Y-91075226D01*
X114645345Y-91323538D01*
X114185154Y-91782927D01*
X113935794Y-92383453D01*
X113935226Y-93033694D01*
X113992980Y-93173468D01*
X113338848Y-93827600D01*
X106603986Y-93827600D01*
X106794846Y-93637073D01*
X107044206Y-93036547D01*
X107044774Y-92386306D01*
X106796462Y-91785345D01*
X106337073Y-91325154D01*
X105736547Y-91075794D01*
X105086306Y-91075226D01*
X104485345Y-91323538D01*
X104025154Y-91782927D01*
X103775794Y-92383453D01*
X103775226Y-93033694D01*
X104023538Y-93634655D01*
X104216147Y-93827600D01*
X102870000Y-93827600D01*
X102568675Y-93887537D01*
X102313224Y-94058224D01*
X101616894Y-94754554D01*
X101600000Y-94751193D01*
X101065391Y-94857533D01*
X100612172Y-95160365D01*
X100330000Y-95582664D01*
X100047828Y-95160365D01*
X99594609Y-94857533D01*
X99060000Y-94751193D01*
X98525391Y-94857533D01*
X98072172Y-95160365D01*
X97790000Y-95582664D01*
X97507828Y-95160365D01*
X97054609Y-94857533D01*
X96520000Y-94751193D01*
X95985391Y-94857533D01*
X95532172Y-95160365D01*
X95250000Y-95582664D01*
X94967828Y-95160365D01*
X94514609Y-94857533D01*
X93980000Y-94751193D01*
X93445391Y-94857533D01*
X92992172Y-95160365D01*
X92710000Y-95582664D01*
X92427828Y-95160365D01*
X91974609Y-94857533D01*
X91440000Y-94751193D01*
X90905391Y-94857533D01*
X90452172Y-95160365D01*
X90170000Y-95582664D01*
X89887828Y-95160365D01*
X89434609Y-94857533D01*
X88900000Y-94751193D01*
X88365391Y-94857533D01*
X87912172Y-95160365D01*
X87630000Y-95582664D01*
X87347828Y-95160365D01*
X86894609Y-94857533D01*
X86360000Y-94751193D01*
X85825391Y-94857533D01*
X85372172Y-95160365D01*
X85090000Y-95582664D01*
X84807828Y-95160365D01*
X84354609Y-94857533D01*
X83820000Y-94751193D01*
X83285391Y-94857533D01*
X82832172Y-95160365D01*
X82529340Y-95613584D01*
X82423000Y-96148193D01*
X82423000Y-96891807D01*
X82529340Y-97426416D01*
X82832172Y-97879635D01*
X83285391Y-98182467D01*
X83820000Y-98288807D01*
X84354609Y-98182467D01*
X84807828Y-97879635D01*
X85090000Y-97457336D01*
X85372172Y-97879635D01*
X85825391Y-98182467D01*
X86360000Y-98288807D01*
X86894609Y-98182467D01*
X87347828Y-97879635D01*
X87630000Y-97457336D01*
X87912172Y-97879635D01*
X88365391Y-98182467D01*
X88900000Y-98288807D01*
X89434609Y-98182467D01*
X89887828Y-97879635D01*
X90170000Y-97457336D01*
X90452172Y-97879635D01*
X90905391Y-98182467D01*
X91440000Y-98288807D01*
X91974609Y-98182467D01*
X92427828Y-97879635D01*
X92710000Y-97457336D01*
X92992172Y-97879635D01*
X93445391Y-98182467D01*
X93980000Y-98288807D01*
X94514609Y-98182467D01*
X94967828Y-97879635D01*
X95250000Y-97457336D01*
X95532172Y-97879635D01*
X95985391Y-98182467D01*
X96520000Y-98288807D01*
X97054609Y-98182467D01*
X97507828Y-97879635D01*
X97790000Y-97457336D01*
X98072172Y-97879635D01*
X98272600Y-98013557D01*
X98272600Y-99060000D01*
X98332537Y-99361325D01*
X98503224Y-99616776D01*
X99773224Y-100886776D01*
X100028675Y-101057463D01*
X100330000Y-101117400D01*
X107623848Y-101117400D01*
X108148996Y-101642548D01*
X107950000Y-101940366D01*
X107739670Y-101625585D01*
X107253489Y-101300729D01*
X106680000Y-101186655D01*
X106106511Y-101300729D01*
X105620330Y-101625585D01*
X105413539Y-101935069D01*
X105042036Y-101519268D01*
X104514791Y-101265291D01*
X104499026Y-101262642D01*
X104267000Y-101383783D01*
X104267000Y-102743000D01*
X104287000Y-102743000D01*
X104287000Y-102997000D01*
X104267000Y-102997000D01*
X104267000Y-104356217D01*
X104499026Y-104477358D01*
X104514791Y-104474709D01*
X105042036Y-104220732D01*
X105413539Y-103804931D01*
X105620330Y-104114415D01*
X106106511Y-104439271D01*
X106680000Y-104553345D01*
X107253489Y-104439271D01*
X107739670Y-104114415D01*
X107950000Y-103799634D01*
X108160330Y-104114415D01*
X108646511Y-104439271D01*
X109220000Y-104553345D01*
X109793489Y-104439271D01*
X110279670Y-104114415D01*
X110604526Y-103628234D01*
X110718600Y-103054745D01*
X110718600Y-102685255D01*
X110604526Y-102111766D01*
X110279670Y-101625585D01*
X109971535Y-101419696D01*
X109947463Y-101298675D01*
X109776776Y-101043224D01*
X108506776Y-99773224D01*
X108251325Y-99602537D01*
X107950000Y-99542600D01*
X100656152Y-99542600D01*
X99847400Y-98733848D01*
X99847400Y-98013557D01*
X100047828Y-97879635D01*
X100330000Y-97457336D01*
X100612172Y-97879635D01*
X101065391Y-98182467D01*
X101600000Y-98288807D01*
X102134609Y-98182467D01*
X102587828Y-97879635D01*
X102870000Y-97457336D01*
X103152172Y-97879635D01*
X103605391Y-98182467D01*
X104140000Y-98288807D01*
X104674609Y-98182467D01*
X105127828Y-97879635D01*
X105410000Y-97457336D01*
X105692172Y-97879635D01*
X106145391Y-98182467D01*
X106680000Y-98288807D01*
X107214609Y-98182467D01*
X107667828Y-97879635D01*
X107950000Y-97457336D01*
X108232172Y-97879635D01*
X108685391Y-98182467D01*
X109220000Y-98288807D01*
X109754609Y-98182467D01*
X110207828Y-97879635D01*
X110490000Y-97457336D01*
X110772172Y-97879635D01*
X111225391Y-98182467D01*
X111760000Y-98288807D01*
X112294609Y-98182467D01*
X112747828Y-97879635D01*
X113030000Y-97457336D01*
X113312172Y-97879635D01*
X113765391Y-98182467D01*
X114300000Y-98288807D01*
X114782600Y-98192812D01*
X114782600Y-103813848D01*
X113973848Y-104622600D01*
X100656152Y-104622600D01*
X100131004Y-104097452D01*
X100330000Y-103799634D01*
X100540330Y-104114415D01*
X101026511Y-104439271D01*
X101600000Y-104553345D01*
X102173489Y-104439271D01*
X102659670Y-104114415D01*
X102866461Y-103804931D01*
X103237964Y-104220732D01*
X103765209Y-104474709D01*
X103780974Y-104477358D01*
X104013000Y-104356217D01*
X104013000Y-102997000D01*
X103993000Y-102997000D01*
X103993000Y-102743000D01*
X104013000Y-102743000D01*
X104013000Y-101383783D01*
X103780974Y-101262642D01*
X103765209Y-101265291D01*
X103237964Y-101519268D01*
X102866461Y-101935069D01*
X102659670Y-101625585D01*
X102173489Y-101300729D01*
X101600000Y-101186655D01*
X101026511Y-101300729D01*
X100540330Y-101625585D01*
X100330000Y-101940366D01*
X100119670Y-101625585D01*
X99633489Y-101300729D01*
X99060000Y-101186655D01*
X98486511Y-101300729D01*
X98000330Y-101625585D01*
X97790000Y-101940366D01*
X97579670Y-101625585D01*
X97093489Y-101300729D01*
X96520000Y-101186655D01*
X95946511Y-101300729D01*
X95460330Y-101625585D01*
X95250000Y-101940366D01*
X95039670Y-101625585D01*
X94553489Y-101300729D01*
X93980000Y-101186655D01*
X93406511Y-101300729D01*
X92920330Y-101625585D01*
X92710000Y-101940366D01*
X92499670Y-101625585D01*
X92013489Y-101300729D01*
X91440000Y-101186655D01*
X90866511Y-101300729D01*
X90380330Y-101625585D01*
X90370757Y-101639913D01*
X90366762Y-101618683D01*
X90227690Y-101402559D01*
X90015490Y-101257569D01*
X89763600Y-101206560D01*
X88036400Y-101206560D01*
X87801083Y-101250838D01*
X87584959Y-101389910D01*
X87439969Y-101602110D01*
X87388960Y-101854000D01*
X87388960Y-103886000D01*
X87433238Y-104121317D01*
X87572310Y-104337441D01*
X87784510Y-104482431D01*
X88036400Y-104533440D01*
X89763600Y-104533440D01*
X89998917Y-104489162D01*
X90215041Y-104350090D01*
X90360031Y-104137890D01*
X90368400Y-104096561D01*
X90380330Y-104114415D01*
X90866511Y-104439271D01*
X91440000Y-104553345D01*
X92013489Y-104439271D01*
X92499670Y-104114415D01*
X92710000Y-103799634D01*
X92920330Y-104114415D01*
X93406511Y-104439271D01*
X93980000Y-104553345D01*
X94553489Y-104439271D01*
X95039670Y-104114415D01*
X95250000Y-103799634D01*
X95460330Y-104114415D01*
X95946511Y-104439271D01*
X96520000Y-104553345D01*
X97093489Y-104439271D01*
X97579670Y-104114415D01*
X97790000Y-103799634D01*
X98000330Y-104114415D01*
X98308465Y-104320304D01*
X98332537Y-104441325D01*
X98503224Y-104696776D01*
X99773224Y-105966776D01*
X100028675Y-106137463D01*
X100330000Y-106197400D01*
X114300000Y-106197400D01*
X114601325Y-106137463D01*
X114856776Y-105966776D01*
X116126776Y-104696776D01*
X116244667Y-104520340D01*
X116244457Y-104760854D01*
X116720727Y-105913515D01*
X117359097Y-106553000D01*
X79490218Y-106553000D01*
X80126174Y-105918153D01*
X80604454Y-104766326D01*
X80605543Y-103519146D01*
X80129273Y-102366485D01*
X79248153Y-101483826D01*
X78096326Y-101005546D01*
X76849146Y-101004457D01*
X75696485Y-101480727D01*
X75057000Y-102119097D01*
X75057000Y-92980000D01*
X75822560Y-92980000D01*
X75822560Y-94980000D01*
X75866838Y-95215317D01*
X76005910Y-95431441D01*
X76218110Y-95576431D01*
X76470000Y-95627440D01*
X78470000Y-95627440D01*
X78705317Y-95583162D01*
X78921441Y-95444090D01*
X79066431Y-95231890D01*
X79117440Y-94980000D01*
X79117440Y-93033694D01*
X88535226Y-93033694D01*
X88783538Y-93634655D01*
X89242927Y-94094846D01*
X89843453Y-94344206D01*
X90493694Y-94344774D01*
X91094655Y-94096462D01*
X91554846Y-93637073D01*
X91804206Y-93036547D01*
X91804208Y-93033694D01*
X98695226Y-93033694D01*
X98943538Y-93634655D01*
X99402927Y-94094846D01*
X100003453Y-94344206D01*
X100653694Y-94344774D01*
X101254655Y-94096462D01*
X101714846Y-93637073D01*
X101964206Y-93036547D01*
X101964774Y-92386306D01*
X101716462Y-91785345D01*
X101257073Y-91325154D01*
X100656547Y-91075794D01*
X100006306Y-91075226D01*
X99405345Y-91323538D01*
X98945154Y-91782927D01*
X98695794Y-92383453D01*
X98695226Y-93033694D01*
X91804208Y-93033694D01*
X91804774Y-92386306D01*
X91556462Y-91785345D01*
X91097073Y-91325154D01*
X90496547Y-91075794D01*
X89846306Y-91075226D01*
X89245345Y-91323538D01*
X88785154Y-91782927D01*
X88535794Y-92383453D01*
X88535226Y-93033694D01*
X79117440Y-93033694D01*
X79117440Y-92980000D01*
X79073162Y-92744683D01*
X78934090Y-92528559D01*
X78791439Y-92431090D01*
X78855278Y-92367363D01*
X79104716Y-91766648D01*
X79105284Y-91116205D01*
X78856894Y-90515057D01*
X78397363Y-90054722D01*
X77796648Y-89805284D01*
X77146205Y-89804716D01*
X76545057Y-90053106D01*
X76084722Y-90512637D01*
X75835284Y-91113352D01*
X75834716Y-91763795D01*
X76083106Y-92364943D01*
X76149621Y-92431574D01*
X76018559Y-92515910D01*
X75873569Y-92728110D01*
X75822560Y-92980000D01*
X75057000Y-92980000D01*
X75057000Y-89223694D01*
X88535226Y-89223694D01*
X88783538Y-89824655D01*
X89242927Y-90284846D01*
X89843453Y-90534206D01*
X90493694Y-90534774D01*
X91094655Y-90286462D01*
X91554846Y-89827073D01*
X91804206Y-89226547D01*
X91804208Y-89223694D01*
X98695226Y-89223694D01*
X98943538Y-89824655D01*
X99402927Y-90284846D01*
X100003453Y-90534206D01*
X100653694Y-90534774D01*
X101254655Y-90286462D01*
X101714846Y-89827073D01*
X101964206Y-89226547D01*
X101964208Y-89223694D01*
X103775226Y-89223694D01*
X104023538Y-89824655D01*
X104482927Y-90284846D01*
X105083453Y-90534206D01*
X105733694Y-90534774D01*
X106334655Y-90286462D01*
X106794846Y-89827073D01*
X107044206Y-89226547D01*
X107044208Y-89223694D01*
X113935226Y-89223694D01*
X114183538Y-89824655D01*
X114642927Y-90284846D01*
X115243453Y-90534206D01*
X115893694Y-90534774D01*
X116494655Y-90286462D01*
X116954846Y-89827073D01*
X117204206Y-89226547D01*
X117204774Y-88576306D01*
X116956462Y-87975345D01*
X116497073Y-87515154D01*
X115896547Y-87265794D01*
X115246306Y-87265226D01*
X114645345Y-87513538D01*
X114185154Y-87972927D01*
X113935794Y-88573453D01*
X113935226Y-89223694D01*
X107044208Y-89223694D01*
X107044774Y-88576306D01*
X106796462Y-87975345D01*
X106337073Y-87515154D01*
X105736547Y-87265794D01*
X105086306Y-87265226D01*
X104485345Y-87513538D01*
X104025154Y-87972927D01*
X103775794Y-88573453D01*
X103775226Y-89223694D01*
X101964208Y-89223694D01*
X101964774Y-88576306D01*
X101716462Y-87975345D01*
X101257073Y-87515154D01*
X100656547Y-87265794D01*
X100006306Y-87265226D01*
X99405345Y-87513538D01*
X98945154Y-87972927D01*
X98695794Y-88573453D01*
X98695226Y-89223694D01*
X91804208Y-89223694D01*
X91804774Y-88576306D01*
X91556462Y-87975345D01*
X91097073Y-87515154D01*
X90496547Y-87265794D01*
X89846306Y-87265226D01*
X89245345Y-87513538D01*
X88785154Y-87972927D01*
X88535794Y-88573453D01*
X88535226Y-89223694D01*
X75057000Y-89223694D01*
X75057000Y-85360000D01*
X75822560Y-85360000D01*
X75822560Y-87360000D01*
X75866838Y-87595317D01*
X76005910Y-87811441D01*
X76218110Y-87956431D01*
X76470000Y-88007440D01*
X78470000Y-88007440D01*
X78705317Y-87963162D01*
X78921441Y-87824090D01*
X79066431Y-87611890D01*
X79117440Y-87360000D01*
X79117440Y-85413694D01*
X88535226Y-85413694D01*
X88783538Y-86014655D01*
X89242927Y-86474846D01*
X89843453Y-86724206D01*
X90493694Y-86724774D01*
X91094655Y-86476462D01*
X91554846Y-86017073D01*
X91804206Y-85416547D01*
X91804208Y-85413694D01*
X98695226Y-85413694D01*
X98943538Y-86014655D01*
X99402927Y-86474846D01*
X100003453Y-86724206D01*
X100653694Y-86724774D01*
X101254655Y-86476462D01*
X101714846Y-86017073D01*
X101964206Y-85416547D01*
X101964208Y-85413694D01*
X103775226Y-85413694D01*
X104023538Y-86014655D01*
X104482927Y-86474846D01*
X105083453Y-86724206D01*
X105733694Y-86724774D01*
X106334655Y-86476462D01*
X106794846Y-86017073D01*
X107044206Y-85416547D01*
X107044208Y-85413694D01*
X113935226Y-85413694D01*
X114183538Y-86014655D01*
X114642927Y-86474846D01*
X115243453Y-86724206D01*
X115893694Y-86724774D01*
X116494655Y-86476462D01*
X116954846Y-86017073D01*
X117204206Y-85416547D01*
X117204774Y-84766306D01*
X116956462Y-84165345D01*
X116497073Y-83705154D01*
X115896547Y-83455794D01*
X115246306Y-83455226D01*
X114645345Y-83703538D01*
X114185154Y-84162927D01*
X113935794Y-84763453D01*
X113935226Y-85413694D01*
X107044208Y-85413694D01*
X107044774Y-84766306D01*
X106796462Y-84165345D01*
X106337073Y-83705154D01*
X105736547Y-83455794D01*
X105086306Y-83455226D01*
X104485345Y-83703538D01*
X104025154Y-84162927D01*
X103775794Y-84763453D01*
X103775226Y-85413694D01*
X101964208Y-85413694D01*
X101964774Y-84766306D01*
X101716462Y-84165345D01*
X101257073Y-83705154D01*
X100656547Y-83455794D01*
X100006306Y-83455226D01*
X99405345Y-83703538D01*
X98945154Y-84162927D01*
X98695794Y-84763453D01*
X98695226Y-85413694D01*
X91804208Y-85413694D01*
X91804774Y-84766306D01*
X91556462Y-84165345D01*
X91097073Y-83705154D01*
X90496547Y-83455794D01*
X89846306Y-83455226D01*
X89245345Y-83703538D01*
X88785154Y-84162927D01*
X88535794Y-84763453D01*
X88535226Y-85413694D01*
X79117440Y-85413694D01*
X79117440Y-85360000D01*
X79073162Y-85124683D01*
X78934090Y-84908559D01*
X78791439Y-84811090D01*
X78855278Y-84747363D01*
X79104716Y-84146648D01*
X79105284Y-83496205D01*
X78856894Y-82895057D01*
X78397363Y-82434722D01*
X77796648Y-82185284D01*
X77146205Y-82184716D01*
X76545057Y-82433106D01*
X76084722Y-82892637D01*
X75835284Y-83493352D01*
X75834716Y-84143795D01*
X76083106Y-84744943D01*
X76149621Y-84811574D01*
X76018559Y-84895910D01*
X75873569Y-85108110D01*
X75822560Y-85360000D01*
X75057000Y-85360000D01*
X75057000Y-81407000D01*
X82423000Y-81407000D01*
X82423000Y-81743550D01*
X82577941Y-82268491D01*
X82921974Y-82694180D01*
X83402723Y-82955810D01*
X83476930Y-82970770D01*
X83693000Y-82848270D01*
X83693000Y-81407000D01*
X82423000Y-81407000D01*
X75057000Y-81407000D01*
X75057000Y-80816450D01*
X82423000Y-80816450D01*
X82423000Y-81153000D01*
X83693000Y-81153000D01*
X83693000Y-79711730D01*
X83947000Y-79711730D01*
X83947000Y-81153000D01*
X83967000Y-81153000D01*
X83967000Y-81407000D01*
X83947000Y-81407000D01*
X83947000Y-82848270D01*
X84163070Y-82970770D01*
X84237277Y-82955810D01*
X84718026Y-82694180D01*
X85062059Y-82268491D01*
X85081358Y-82203107D01*
X85372172Y-82638340D01*
X85825391Y-82941172D01*
X86360000Y-83047512D01*
X86894609Y-82941172D01*
X87347828Y-82638340D01*
X87630000Y-82216041D01*
X87912172Y-82638340D01*
X88365391Y-82941172D01*
X88900000Y-83047512D01*
X89434609Y-82941172D01*
X89887828Y-82638340D01*
X90170000Y-82216041D01*
X90452172Y-82638340D01*
X90905391Y-82941172D01*
X91440000Y-83047512D01*
X91974609Y-82941172D01*
X92427828Y-82638340D01*
X92710000Y-82216041D01*
X92992172Y-82638340D01*
X93445391Y-82941172D01*
X93980000Y-83047512D01*
X94514609Y-82941172D01*
X94967828Y-82638340D01*
X95250000Y-82216041D01*
X95532172Y-82638340D01*
X95985391Y-82941172D01*
X96520000Y-83047512D01*
X97054609Y-82941172D01*
X97507828Y-82638340D01*
X97790000Y-82216041D01*
X98072172Y-82638340D01*
X98525391Y-82941172D01*
X99060000Y-83047512D01*
X99594609Y-82941172D01*
X100047828Y-82638340D01*
X100330000Y-82216041D01*
X100612172Y-82638340D01*
X101065391Y-82941172D01*
X101600000Y-83047512D01*
X102134609Y-82941172D01*
X102587828Y-82638340D01*
X102870000Y-82216041D01*
X103152172Y-82638340D01*
X103605391Y-82941172D01*
X104140000Y-83047512D01*
X104674609Y-82941172D01*
X105127828Y-82638340D01*
X105410000Y-82216041D01*
X105692172Y-82638340D01*
X106145391Y-82941172D01*
X106680000Y-83047512D01*
X107214609Y-82941172D01*
X107667828Y-82638340D01*
X107950000Y-82216041D01*
X108232172Y-82638340D01*
X108685391Y-82941172D01*
X109220000Y-83047512D01*
X109754609Y-82941172D01*
X110207828Y-82638340D01*
X110489567Y-82216688D01*
X110772172Y-82639635D01*
X111225391Y-82942467D01*
X111760000Y-83048807D01*
X112294609Y-82942467D01*
X112747828Y-82639635D01*
X113030000Y-82217336D01*
X113312172Y-82639635D01*
X113765391Y-82942467D01*
X114300000Y-83048807D01*
X114834609Y-82942467D01*
X115287828Y-82639635D01*
X115570000Y-82217336D01*
X115852172Y-82639635D01*
X116305391Y-82942467D01*
X116840000Y-83048807D01*
X117374609Y-82942467D01*
X117827828Y-82639635D01*
X118110000Y-82217336D01*
X118392172Y-82639635D01*
X118845391Y-82942467D01*
X119380000Y-83048807D01*
X119914609Y-82942467D01*
X120367828Y-82639635D01*
X120670660Y-82186416D01*
X120777000Y-81651807D01*
X120777000Y-80908193D01*
X120670660Y-80373584D01*
X120367828Y-79920365D01*
X119914609Y-79617533D01*
X119380000Y-79511193D01*
X118845391Y-79617533D01*
X118392172Y-79920365D01*
X118110000Y-80342664D01*
X117827828Y-79920365D01*
X117374609Y-79617533D01*
X116840000Y-79511193D01*
X116305391Y-79617533D01*
X115852172Y-79920365D01*
X115570000Y-80342664D01*
X115287828Y-79920365D01*
X114834609Y-79617533D01*
X114300000Y-79511193D01*
X113765391Y-79617533D01*
X113312172Y-79920365D01*
X113030000Y-80342664D01*
X112747828Y-79920365D01*
X112294609Y-79617533D01*
X111760000Y-79511193D01*
X111225391Y-79617533D01*
X110772172Y-79920365D01*
X110489567Y-80343312D01*
X110207828Y-79921660D01*
X109754609Y-79618828D01*
X109220000Y-79512488D01*
X108685391Y-79618828D01*
X108232172Y-79921660D01*
X107950000Y-80343959D01*
X107667828Y-79921660D01*
X107214609Y-79618828D01*
X106680000Y-79512488D01*
X106145391Y-79618828D01*
X105692172Y-79921660D01*
X105410000Y-80343959D01*
X105127828Y-79921660D01*
X104674609Y-79618828D01*
X104140000Y-79512488D01*
X103605391Y-79618828D01*
X103152172Y-79921660D01*
X102870000Y-80343959D01*
X102587828Y-79921660D01*
X102134609Y-79618828D01*
X101600000Y-79512488D01*
X101065391Y-79618828D01*
X100612172Y-79921660D01*
X100330000Y-80343959D01*
X100047828Y-79921660D01*
X99594609Y-79618828D01*
X99060000Y-79512488D01*
X98525391Y-79618828D01*
X98072172Y-79921660D01*
X97790000Y-80343959D01*
X97507828Y-79921660D01*
X97054609Y-79618828D01*
X96520000Y-79512488D01*
X95985391Y-79618828D01*
X95532172Y-79921660D01*
X95250000Y-80343959D01*
X94967828Y-79921660D01*
X94514609Y-79618828D01*
X93980000Y-79512488D01*
X93445391Y-79618828D01*
X92992172Y-79921660D01*
X92710000Y-80343959D01*
X92427828Y-79921660D01*
X91974609Y-79618828D01*
X91440000Y-79512488D01*
X90905391Y-79618828D01*
X90452172Y-79921660D01*
X90170000Y-80343959D01*
X89887828Y-79921660D01*
X89434609Y-79618828D01*
X88900000Y-79512488D01*
X88365391Y-79618828D01*
X87912172Y-79921660D01*
X87630000Y-80343959D01*
X87347828Y-79921660D01*
X86894609Y-79618828D01*
X86360000Y-79512488D01*
X85825391Y-79618828D01*
X85372172Y-79921660D01*
X85081358Y-80356893D01*
X85062059Y-80291509D01*
X84718026Y-79865820D01*
X84237277Y-79604190D01*
X84163070Y-79589230D01*
X83947000Y-79711730D01*
X83693000Y-79711730D01*
X83476930Y-79589230D01*
X83402723Y-79604190D01*
X82921974Y-79865820D01*
X82577941Y-80291509D01*
X82423000Y-80816450D01*
X75057000Y-80816450D01*
X75057000Y-71592325D01*
X83404587Y-71592325D01*
X83766916Y-72469229D01*
X84437242Y-73140726D01*
X85313513Y-73504585D01*
X86262325Y-73505413D01*
X87139229Y-73143084D01*
X87790547Y-72492902D01*
X88437242Y-73140726D01*
X89313513Y-73504585D01*
X90262325Y-73505413D01*
X91139229Y-73143084D01*
X91751489Y-72531892D01*
X91766916Y-72569229D01*
X92437242Y-73240726D01*
X93313513Y-73604585D01*
X94262325Y-73605413D01*
X95139229Y-73243084D01*
X95810726Y-72572758D01*
X95828216Y-72530636D01*
X96437242Y-73140726D01*
X97313513Y-73504585D01*
X98262325Y-73505413D01*
X99139229Y-73143084D01*
X99810726Y-72472758D01*
X100174585Y-71596487D01*
X100174588Y-71592325D01*
X101904587Y-71592325D01*
X102266916Y-72469229D01*
X102937242Y-73140726D01*
X103813513Y-73504585D01*
X104762325Y-73505413D01*
X105639229Y-73143084D01*
X106290547Y-72492902D01*
X106937242Y-73140726D01*
X107813513Y-73504585D01*
X108762325Y-73505413D01*
X109639229Y-73143084D01*
X110290547Y-72492902D01*
X110937242Y-73140726D01*
X111813513Y-73504585D01*
X112762325Y-73505413D01*
X113639229Y-73143084D01*
X114310726Y-72472758D01*
X114674585Y-71596487D01*
X114675413Y-70647675D01*
X114313084Y-69770771D01*
X113642758Y-69099274D01*
X112766487Y-68735415D01*
X111817675Y-68734587D01*
X110940771Y-69096916D01*
X110289453Y-69747098D01*
X109642758Y-69099274D01*
X108766487Y-68735415D01*
X107817675Y-68734587D01*
X106940771Y-69096916D01*
X106289453Y-69747098D01*
X105642758Y-69099274D01*
X104766487Y-68735415D01*
X103817675Y-68734587D01*
X102940771Y-69096916D01*
X102269274Y-69767242D01*
X101905415Y-70643513D01*
X101904587Y-71592325D01*
X100174588Y-71592325D01*
X100175413Y-70647675D01*
X99813084Y-69770771D01*
X99142758Y-69099274D01*
X98266487Y-68735415D01*
X97317675Y-68734587D01*
X96440771Y-69096916D01*
X95769274Y-69767242D01*
X95751784Y-69809364D01*
X95142758Y-69199274D01*
X94266487Y-68835415D01*
X93317675Y-68834587D01*
X92440771Y-69196916D01*
X91828511Y-69808108D01*
X91813084Y-69770771D01*
X91142758Y-69099274D01*
X90266487Y-68735415D01*
X89317675Y-68734587D01*
X88440771Y-69096916D01*
X87789453Y-69747098D01*
X87142758Y-69099274D01*
X86266487Y-68735415D01*
X85317675Y-68734587D01*
X84440771Y-69096916D01*
X83769274Y-69767242D01*
X83405415Y-70643513D01*
X83404587Y-71592325D01*
X75057000Y-71592325D01*
X75057000Y-64250218D01*
X75691847Y-64886174D01*
X76843674Y-65364454D01*
X78090854Y-65365543D01*
X79243515Y-64889273D01*
X80126174Y-64008153D01*
X80604454Y-62856326D01*
X80605543Y-61609146D01*
X80129273Y-60456485D01*
X79490903Y-59817000D01*
X117359782Y-59817000D01*
X116723826Y-60451847D01*
X116723826Y-60451847D01*
G37*
X116723826Y-60451847D02*
X116245546Y-61603674D01*
X116244457Y-62850854D01*
X116720727Y-64003515D01*
X117601847Y-64886174D01*
X118753674Y-65364454D01*
X120000854Y-65365543D01*
X121153515Y-64889273D01*
X121793000Y-64250903D01*
X121793000Y-102119782D01*
X121158153Y-101483826D01*
X120006326Y-101005546D01*
X118759146Y-101004457D01*
X117606485Y-101480727D01*
X116723826Y-102361847D01*
X116357400Y-103244299D01*
X116357400Y-98192812D01*
X116840000Y-98288807D01*
X117374609Y-98182467D01*
X117827828Y-97879635D01*
X118110000Y-97457336D01*
X118392172Y-97879635D01*
X118845391Y-98182467D01*
X119380000Y-98288807D01*
X119914609Y-98182467D01*
X120367828Y-97879635D01*
X120670660Y-97426416D01*
X120777000Y-96891807D01*
X120777000Y-96148193D01*
X120670660Y-95613584D01*
X120367828Y-95160365D01*
X119914609Y-94857533D01*
X119380000Y-94751193D01*
X118845391Y-94857533D01*
X118392172Y-95160365D01*
X118110000Y-95582664D01*
X117827828Y-95160365D01*
X117374609Y-94857533D01*
X116840000Y-94751193D01*
X116357400Y-94847188D01*
X116357400Y-94153175D01*
X116494655Y-94096462D01*
X116954846Y-93637073D01*
X117204206Y-93036547D01*
X117204774Y-92386306D01*
X116956462Y-91785345D01*
X116497073Y-91325154D01*
X115896547Y-91075794D01*
X115246306Y-91075226D01*
X114645345Y-91323538D01*
X114185154Y-91782927D01*
X113935794Y-92383453D01*
X113935226Y-93033694D01*
X113992980Y-93173468D01*
X113338848Y-93827600D01*
X106603986Y-93827600D01*
X106794846Y-93637073D01*
X107044206Y-93036547D01*
X107044774Y-92386306D01*
X106796462Y-91785345D01*
X106337073Y-91325154D01*
X105736547Y-91075794D01*
X105086306Y-91075226D01*
X104485345Y-91323538D01*
X104025154Y-91782927D01*
X103775794Y-92383453D01*
X103775226Y-93033694D01*
X104023538Y-93634655D01*
X104216147Y-93827600D01*
X102870000Y-93827600D01*
X102568675Y-93887537D01*
X102313224Y-94058224D01*
X101616894Y-94754554D01*
X101600000Y-94751193D01*
X101065391Y-94857533D01*
X100612172Y-95160365D01*
X100330000Y-95582664D01*
X100047828Y-95160365D01*
X99594609Y-94857533D01*
X99060000Y-94751193D01*
X98525391Y-94857533D01*
X98072172Y-95160365D01*
X97790000Y-95582664D01*
X97507828Y-95160365D01*
X97054609Y-94857533D01*
X96520000Y-94751193D01*
X95985391Y-94857533D01*
X95532172Y-95160365D01*
X95250000Y-95582664D01*
X94967828Y-95160365D01*
X94514609Y-94857533D01*
X93980000Y-94751193D01*
X93445391Y-94857533D01*
X92992172Y-95160365D01*
X92710000Y-95582664D01*
X92427828Y-95160365D01*
X91974609Y-94857533D01*
X91440000Y-94751193D01*
X90905391Y-94857533D01*
X90452172Y-95160365D01*
X90170000Y-95582664D01*
X89887828Y-95160365D01*
X89434609Y-94857533D01*
X88900000Y-94751193D01*
X88365391Y-94857533D01*
X87912172Y-95160365D01*
X87630000Y-95582664D01*
X87347828Y-95160365D01*
X86894609Y-94857533D01*
X86360000Y-94751193D01*
X85825391Y-94857533D01*
X85372172Y-95160365D01*
X85090000Y-95582664D01*
X84807828Y-95160365D01*
X84354609Y-94857533D01*
X83820000Y-94751193D01*
X83285391Y-94857533D01*
X82832172Y-95160365D01*
X82529340Y-95613584D01*
X82423000Y-96148193D01*
X82423000Y-96891807D01*
X82529340Y-97426416D01*
X82832172Y-97879635D01*
X83285391Y-98182467D01*
X83820000Y-98288807D01*
X84354609Y-98182467D01*
X84807828Y-97879635D01*
X85090000Y-97457336D01*
X85372172Y-97879635D01*
X85825391Y-98182467D01*
X86360000Y-98288807D01*
X86894609Y-98182467D01*
X87347828Y-97879635D01*
X87630000Y-97457336D01*
X87912172Y-97879635D01*
X88365391Y-98182467D01*
X88900000Y-98288807D01*
X89434609Y-98182467D01*
X89887828Y-97879635D01*
X90170000Y-97457336D01*
X90452172Y-97879635D01*
X90905391Y-98182467D01*
X91440000Y-98288807D01*
X91974609Y-98182467D01*
X92427828Y-97879635D01*
X92710000Y-97457336D01*
X92992172Y-97879635D01*
X93445391Y-98182467D01*
X93980000Y-98288807D01*
X94514609Y-98182467D01*
X94967828Y-97879635D01*
X95250000Y-97457336D01*
X95532172Y-97879635D01*
X95985391Y-98182467D01*
X96520000Y-98288807D01*
X97054609Y-98182467D01*
X97507828Y-97879635D01*
X97790000Y-97457336D01*
X98072172Y-97879635D01*
X98272600Y-98013557D01*
X98272600Y-99060000D01*
X98332537Y-99361325D01*
X98503224Y-99616776D01*
X99773224Y-100886776D01*
X100028675Y-101057463D01*
X100330000Y-101117400D01*
X107623848Y-101117400D01*
X108148996Y-101642548D01*
X107950000Y-101940366D01*
X107739670Y-101625585D01*
X107253489Y-101300729D01*
X106680000Y-101186655D01*
X106106511Y-101300729D01*
X105620330Y-101625585D01*
X105413539Y-101935069D01*
X105042036Y-101519268D01*
X104514791Y-101265291D01*
X104499026Y-101262642D01*
X104267000Y-101383783D01*
X104267000Y-102743000D01*
X104287000Y-102743000D01*
X104287000Y-102997000D01*
X104267000Y-102997000D01*
X104267000Y-104356217D01*
X104499026Y-104477358D01*
X104514791Y-104474709D01*
X105042036Y-104220732D01*
X105413539Y-103804931D01*
X105620330Y-104114415D01*
X106106511Y-104439271D01*
X106680000Y-104553345D01*
X107253489Y-104439271D01*
X107739670Y-104114415D01*
X107950000Y-103799634D01*
X108160330Y-104114415D01*
X108646511Y-104439271D01*
X109220000Y-104553345D01*
X109793489Y-104439271D01*
X110279670Y-104114415D01*
X110604526Y-103628234D01*
X110718600Y-103054745D01*
X110718600Y-102685255D01*
X110604526Y-102111766D01*
X110279670Y-101625585D01*
X109971535Y-101419696D01*
X109947463Y-101298675D01*
X109776776Y-101043224D01*
X108506776Y-99773224D01*
X108251325Y-99602537D01*
X107950000Y-99542600D01*
X100656152Y-99542600D01*
X99847400Y-98733848D01*
X99847400Y-98013557D01*
X100047828Y-97879635D01*
X100330000Y-97457336D01*
X100612172Y-97879635D01*
X101065391Y-98182467D01*
X101600000Y-98288807D01*
X102134609Y-98182467D01*
X102587828Y-97879635D01*
X102870000Y-97457336D01*
X103152172Y-97879635D01*
X103605391Y-98182467D01*
X104140000Y-98288807D01*
X104674609Y-98182467D01*
X105127828Y-97879635D01*
X105410000Y-97457336D01*
X105692172Y-97879635D01*
X106145391Y-98182467D01*
X106680000Y-98288807D01*
X107214609Y-98182467D01*
X107667828Y-97879635D01*
X107950000Y-97457336D01*
X108232172Y-97879635D01*
X108685391Y-98182467D01*
X109220000Y-98288807D01*
X109754609Y-98182467D01*
X110207828Y-97879635D01*
X110490000Y-97457336D01*
X110772172Y-97879635D01*
X111225391Y-98182467D01*
X111760000Y-98288807D01*
X112294609Y-98182467D01*
X112747828Y-97879635D01*
X113030000Y-97457336D01*
X113312172Y-97879635D01*
X113765391Y-98182467D01*
X114300000Y-98288807D01*
X114782600Y-98192812D01*
X114782600Y-103813848D01*
X113973848Y-104622600D01*
X100656152Y-104622600D01*
X100131004Y-104097452D01*
X100330000Y-103799634D01*
X100540330Y-104114415D01*
X101026511Y-104439271D01*
X101600000Y-104553345D01*
X102173489Y-104439271D01*
X102659670Y-104114415D01*
X102866461Y-103804931D01*
X103237964Y-104220732D01*
X103765209Y-104474709D01*
X103780974Y-104477358D01*
X104013000Y-104356217D01*
X104013000Y-102997000D01*
X103993000Y-102997000D01*
X103993000Y-102743000D01*
X104013000Y-102743000D01*
X104013000Y-101383783D01*
X103780974Y-101262642D01*
X103765209Y-101265291D01*
X103237964Y-101519268D01*
X102866461Y-101935069D01*
X102659670Y-101625585D01*
X102173489Y-101300729D01*
X101600000Y-101186655D01*
X101026511Y-101300729D01*
X100540330Y-101625585D01*
X100330000Y-101940366D01*
X100119670Y-101625585D01*
X99633489Y-101300729D01*
X99060000Y-101186655D01*
X98486511Y-101300729D01*
X98000330Y-101625585D01*
X97790000Y-101940366D01*
X97579670Y-101625585D01*
X97093489Y-101300729D01*
X96520000Y-101186655D01*
X95946511Y-101300729D01*
X95460330Y-101625585D01*
X95250000Y-101940366D01*
X95039670Y-101625585D01*
X94553489Y-101300729D01*
X93980000Y-101186655D01*
X93406511Y-101300729D01*
X92920330Y-101625585D01*
X92710000Y-101940366D01*
X92499670Y-101625585D01*
X92013489Y-101300729D01*
X91440000Y-101186655D01*
X90866511Y-101300729D01*
X90380330Y-101625585D01*
X90370757Y-101639913D01*
X90366762Y-101618683D01*
X90227690Y-101402559D01*
X90015490Y-101257569D01*
X89763600Y-101206560D01*
X88036400Y-101206560D01*
X87801083Y-101250838D01*
X87584959Y-101389910D01*
X87439969Y-101602110D01*
X87388960Y-101854000D01*
X87388960Y-103886000D01*
X87433238Y-104121317D01*
X87572310Y-104337441D01*
X87784510Y-104482431D01*
X88036400Y-104533440D01*
X89763600Y-104533440D01*
X89998917Y-104489162D01*
X90215041Y-104350090D01*
X90360031Y-104137890D01*
X90368400Y-104096561D01*
X90380330Y-104114415D01*
X90866511Y-104439271D01*
X91440000Y-104553345D01*
X92013489Y-104439271D01*
X92499670Y-104114415D01*
X92710000Y-103799634D01*
X92920330Y-104114415D01*
X93406511Y-104439271D01*
X93980000Y-104553345D01*
X94553489Y-104439271D01*
X95039670Y-104114415D01*
X95250000Y-103799634D01*
X95460330Y-104114415D01*
X95946511Y-104439271D01*
X96520000Y-104553345D01*
X97093489Y-104439271D01*
X97579670Y-104114415D01*
X97790000Y-103799634D01*
X98000330Y-104114415D01*
X98308465Y-104320304D01*
X98332537Y-104441325D01*
X98503224Y-104696776D01*
X99773224Y-105966776D01*
X100028675Y-106137463D01*
X100330000Y-106197400D01*
X114300000Y-106197400D01*
X114601325Y-106137463D01*
X114856776Y-105966776D01*
X116126776Y-104696776D01*
X116244667Y-104520340D01*
X116244457Y-104760854D01*
X116720727Y-105913515D01*
X117359097Y-106553000D01*
X79490218Y-106553000D01*
X80126174Y-105918153D01*
X80604454Y-104766326D01*
X80605543Y-103519146D01*
X80129273Y-102366485D01*
X79248153Y-101483826D01*
X78096326Y-101005546D01*
X76849146Y-101004457D01*
X75696485Y-101480727D01*
X75057000Y-102119097D01*
X75057000Y-92980000D01*
X75822560Y-92980000D01*
X75822560Y-94980000D01*
X75866838Y-95215317D01*
X76005910Y-95431441D01*
X76218110Y-95576431D01*
X76470000Y-95627440D01*
X78470000Y-95627440D01*
X78705317Y-95583162D01*
X78921441Y-95444090D01*
X79066431Y-95231890D01*
X79117440Y-94980000D01*
X79117440Y-93033694D01*
X88535226Y-93033694D01*
X88783538Y-93634655D01*
X89242927Y-94094846D01*
X89843453Y-94344206D01*
X90493694Y-94344774D01*
X91094655Y-94096462D01*
X91554846Y-93637073D01*
X91804206Y-93036547D01*
X91804208Y-93033694D01*
X98695226Y-93033694D01*
X98943538Y-93634655D01*
X99402927Y-94094846D01*
X100003453Y-94344206D01*
X100653694Y-94344774D01*
X101254655Y-94096462D01*
X101714846Y-93637073D01*
X101964206Y-93036547D01*
X101964774Y-92386306D01*
X101716462Y-91785345D01*
X101257073Y-91325154D01*
X100656547Y-91075794D01*
X100006306Y-91075226D01*
X99405345Y-91323538D01*
X98945154Y-91782927D01*
X98695794Y-92383453D01*
X98695226Y-93033694D01*
X91804208Y-93033694D01*
X91804774Y-92386306D01*
X91556462Y-91785345D01*
X91097073Y-91325154D01*
X90496547Y-91075794D01*
X89846306Y-91075226D01*
X89245345Y-91323538D01*
X88785154Y-91782927D01*
X88535794Y-92383453D01*
X88535226Y-93033694D01*
X79117440Y-93033694D01*
X79117440Y-92980000D01*
X79073162Y-92744683D01*
X78934090Y-92528559D01*
X78791439Y-92431090D01*
X78855278Y-92367363D01*
X79104716Y-91766648D01*
X79105284Y-91116205D01*
X78856894Y-90515057D01*
X78397363Y-90054722D01*
X77796648Y-89805284D01*
X77146205Y-89804716D01*
X76545057Y-90053106D01*
X76084722Y-90512637D01*
X75835284Y-91113352D01*
X75834716Y-91763795D01*
X76083106Y-92364943D01*
X76149621Y-92431574D01*
X76018559Y-92515910D01*
X75873569Y-92728110D01*
X75822560Y-92980000D01*
X75057000Y-92980000D01*
X75057000Y-89223694D01*
X88535226Y-89223694D01*
X88783538Y-89824655D01*
X89242927Y-90284846D01*
X89843453Y-90534206D01*
X90493694Y-90534774D01*
X91094655Y-90286462D01*
X91554846Y-89827073D01*
X91804206Y-89226547D01*
X91804208Y-89223694D01*
X98695226Y-89223694D01*
X98943538Y-89824655D01*
X99402927Y-90284846D01*
X100003453Y-90534206D01*
X100653694Y-90534774D01*
X101254655Y-90286462D01*
X101714846Y-89827073D01*
X101964206Y-89226547D01*
X101964208Y-89223694D01*
X103775226Y-89223694D01*
X104023538Y-89824655D01*
X104482927Y-90284846D01*
X105083453Y-90534206D01*
X105733694Y-90534774D01*
X106334655Y-90286462D01*
X106794846Y-89827073D01*
X107044206Y-89226547D01*
X107044208Y-89223694D01*
X113935226Y-89223694D01*
X114183538Y-89824655D01*
X114642927Y-90284846D01*
X115243453Y-90534206D01*
X115893694Y-90534774D01*
X116494655Y-90286462D01*
X116954846Y-89827073D01*
X117204206Y-89226547D01*
X117204774Y-88576306D01*
X116956462Y-87975345D01*
X116497073Y-87515154D01*
X115896547Y-87265794D01*
X115246306Y-87265226D01*
X114645345Y-87513538D01*
X114185154Y-87972927D01*
X113935794Y-88573453D01*
X113935226Y-89223694D01*
X107044208Y-89223694D01*
X107044774Y-88576306D01*
X106796462Y-87975345D01*
X106337073Y-87515154D01*
X105736547Y-87265794D01*
X105086306Y-87265226D01*
X104485345Y-87513538D01*
X104025154Y-87972927D01*
X103775794Y-88573453D01*
X103775226Y-89223694D01*
X101964208Y-89223694D01*
X101964774Y-88576306D01*
X101716462Y-87975345D01*
X101257073Y-87515154D01*
X100656547Y-87265794D01*
X100006306Y-87265226D01*
X99405345Y-87513538D01*
X98945154Y-87972927D01*
X98695794Y-88573453D01*
X98695226Y-89223694D01*
X91804208Y-89223694D01*
X91804774Y-88576306D01*
X91556462Y-87975345D01*
X91097073Y-87515154D01*
X90496547Y-87265794D01*
X89846306Y-87265226D01*
X89245345Y-87513538D01*
X88785154Y-87972927D01*
X88535794Y-88573453D01*
X88535226Y-89223694D01*
X75057000Y-89223694D01*
X75057000Y-85360000D01*
X75822560Y-85360000D01*
X75822560Y-87360000D01*
X75866838Y-87595317D01*
X76005910Y-87811441D01*
X76218110Y-87956431D01*
X76470000Y-88007440D01*
X78470000Y-88007440D01*
X78705317Y-87963162D01*
X78921441Y-87824090D01*
X79066431Y-87611890D01*
X79117440Y-87360000D01*
X79117440Y-85413694D01*
X88535226Y-85413694D01*
X88783538Y-86014655D01*
X89242927Y-86474846D01*
X89843453Y-86724206D01*
X90493694Y-86724774D01*
X91094655Y-86476462D01*
X91554846Y-86017073D01*
X91804206Y-85416547D01*
X91804208Y-85413694D01*
X98695226Y-85413694D01*
X98943538Y-86014655D01*
X99402927Y-86474846D01*
X100003453Y-86724206D01*
X100653694Y-86724774D01*
X101254655Y-86476462D01*
X101714846Y-86017073D01*
X101964206Y-85416547D01*
X101964208Y-85413694D01*
X103775226Y-85413694D01*
X104023538Y-86014655D01*
X104482927Y-86474846D01*
X105083453Y-86724206D01*
X105733694Y-86724774D01*
X106334655Y-86476462D01*
X106794846Y-86017073D01*
X107044206Y-85416547D01*
X107044208Y-85413694D01*
X113935226Y-85413694D01*
X114183538Y-86014655D01*
X114642927Y-86474846D01*
X115243453Y-86724206D01*
X115893694Y-86724774D01*
X116494655Y-86476462D01*
X116954846Y-86017073D01*
X117204206Y-85416547D01*
X117204774Y-84766306D01*
X116956462Y-84165345D01*
X116497073Y-83705154D01*
X115896547Y-83455794D01*
X115246306Y-83455226D01*
X114645345Y-83703538D01*
X114185154Y-84162927D01*
X113935794Y-84763453D01*
X113935226Y-85413694D01*
X107044208Y-85413694D01*
X107044774Y-84766306D01*
X106796462Y-84165345D01*
X106337073Y-83705154D01*
X105736547Y-83455794D01*
X105086306Y-83455226D01*
X104485345Y-83703538D01*
X104025154Y-84162927D01*
X103775794Y-84763453D01*
X103775226Y-85413694D01*
X101964208Y-85413694D01*
X101964774Y-84766306D01*
X101716462Y-84165345D01*
X101257073Y-83705154D01*
X100656547Y-83455794D01*
X100006306Y-83455226D01*
X99405345Y-83703538D01*
X98945154Y-84162927D01*
X98695794Y-84763453D01*
X98695226Y-85413694D01*
X91804208Y-85413694D01*
X91804774Y-84766306D01*
X91556462Y-84165345D01*
X91097073Y-83705154D01*
X90496547Y-83455794D01*
X89846306Y-83455226D01*
X89245345Y-83703538D01*
X88785154Y-84162927D01*
X88535794Y-84763453D01*
X88535226Y-85413694D01*
X79117440Y-85413694D01*
X79117440Y-85360000D01*
X79073162Y-85124683D01*
X78934090Y-84908559D01*
X78791439Y-84811090D01*
X78855278Y-84747363D01*
X79104716Y-84146648D01*
X79105284Y-83496205D01*
X78856894Y-82895057D01*
X78397363Y-82434722D01*
X77796648Y-82185284D01*
X77146205Y-82184716D01*
X76545057Y-82433106D01*
X76084722Y-82892637D01*
X75835284Y-83493352D01*
X75834716Y-84143795D01*
X76083106Y-84744943D01*
X76149621Y-84811574D01*
X76018559Y-84895910D01*
X75873569Y-85108110D01*
X75822560Y-85360000D01*
X75057000Y-85360000D01*
X75057000Y-81407000D01*
X82423000Y-81407000D01*
X82423000Y-81743550D01*
X82577941Y-82268491D01*
X82921974Y-82694180D01*
X83402723Y-82955810D01*
X83476930Y-82970770D01*
X83693000Y-82848270D01*
X83693000Y-81407000D01*
X82423000Y-81407000D01*
X75057000Y-81407000D01*
X75057000Y-80816450D01*
X82423000Y-80816450D01*
X82423000Y-81153000D01*
X83693000Y-81153000D01*
X83693000Y-79711730D01*
X83947000Y-79711730D01*
X83947000Y-81153000D01*
X83967000Y-81153000D01*
X83967000Y-81407000D01*
X83947000Y-81407000D01*
X83947000Y-82848270D01*
X84163070Y-82970770D01*
X84237277Y-82955810D01*
X84718026Y-82694180D01*
X85062059Y-82268491D01*
X85081358Y-82203107D01*
X85372172Y-82638340D01*
X85825391Y-82941172D01*
X86360000Y-83047512D01*
X86894609Y-82941172D01*
X87347828Y-82638340D01*
X87630000Y-82216041D01*
X87912172Y-82638340D01*
X88365391Y-82941172D01*
X88900000Y-83047512D01*
X89434609Y-82941172D01*
X89887828Y-82638340D01*
X90170000Y-82216041D01*
X90452172Y-82638340D01*
X90905391Y-82941172D01*
X91440000Y-83047512D01*
X91974609Y-82941172D01*
X92427828Y-82638340D01*
X92710000Y-82216041D01*
X92992172Y-82638340D01*
X93445391Y-82941172D01*
X93980000Y-83047512D01*
X94514609Y-82941172D01*
X94967828Y-82638340D01*
X95250000Y-82216041D01*
X95532172Y-82638340D01*
X95985391Y-82941172D01*
X96520000Y-83047512D01*
X97054609Y-82941172D01*
X97507828Y-82638340D01*
X97790000Y-82216041D01*
X98072172Y-82638340D01*
X98525391Y-82941172D01*
X99060000Y-83047512D01*
X99594609Y-82941172D01*
X100047828Y-82638340D01*
X100330000Y-82216041D01*
X100612172Y-82638340D01*
X101065391Y-82941172D01*
X101600000Y-83047512D01*
X102134609Y-82941172D01*
X102587828Y-82638340D01*
X102870000Y-82216041D01*
X103152172Y-82638340D01*
X103605391Y-82941172D01*
X104140000Y-83047512D01*
X104674609Y-82941172D01*
X105127828Y-82638340D01*
X105410000Y-82216041D01*
X105692172Y-82638340D01*
X106145391Y-82941172D01*
X106680000Y-83047512D01*
X107214609Y-82941172D01*
X107667828Y-82638340D01*
X107950000Y-82216041D01*
X108232172Y-82638340D01*
X108685391Y-82941172D01*
X109220000Y-83047512D01*
X109754609Y-82941172D01*
X110207828Y-82638340D01*
X110489567Y-82216688D01*
X110772172Y-82639635D01*
X111225391Y-82942467D01*
X111760000Y-83048807D01*
X112294609Y-82942467D01*
X112747828Y-82639635D01*
X113030000Y-82217336D01*
X113312172Y-82639635D01*
X113765391Y-82942467D01*
X114300000Y-83048807D01*
X114834609Y-82942467D01*
X115287828Y-82639635D01*
X115570000Y-82217336D01*
X115852172Y-82639635D01*
X116305391Y-82942467D01*
X116840000Y-83048807D01*
X117374609Y-82942467D01*
X117827828Y-82639635D01*
X118110000Y-82217336D01*
X118392172Y-82639635D01*
X118845391Y-82942467D01*
X119380000Y-83048807D01*
X119914609Y-82942467D01*
X120367828Y-82639635D01*
X120670660Y-82186416D01*
X120777000Y-81651807D01*
X120777000Y-80908193D01*
X120670660Y-80373584D01*
X120367828Y-79920365D01*
X119914609Y-79617533D01*
X119380000Y-79511193D01*
X118845391Y-79617533D01*
X118392172Y-79920365D01*
X118110000Y-80342664D01*
X117827828Y-79920365D01*
X117374609Y-79617533D01*
X116840000Y-79511193D01*
X116305391Y-79617533D01*
X115852172Y-79920365D01*
X115570000Y-80342664D01*
X115287828Y-79920365D01*
X114834609Y-79617533D01*
X114300000Y-79511193D01*
X113765391Y-79617533D01*
X113312172Y-79920365D01*
X113030000Y-80342664D01*
X112747828Y-79920365D01*
X112294609Y-79617533D01*
X111760000Y-79511193D01*
X111225391Y-79617533D01*
X110772172Y-79920365D01*
X110489567Y-80343312D01*
X110207828Y-79921660D01*
X109754609Y-79618828D01*
X109220000Y-79512488D01*
X108685391Y-79618828D01*
X108232172Y-79921660D01*
X107950000Y-80343959D01*
X107667828Y-79921660D01*
X107214609Y-79618828D01*
X106680000Y-79512488D01*
X106145391Y-79618828D01*
X105692172Y-79921660D01*
X105410000Y-80343959D01*
X105127828Y-79921660D01*
X104674609Y-79618828D01*
X104140000Y-79512488D01*
X103605391Y-79618828D01*
X103152172Y-79921660D01*
X102870000Y-80343959D01*
X102587828Y-79921660D01*
X102134609Y-79618828D01*
X101600000Y-79512488D01*
X101065391Y-79618828D01*
X100612172Y-79921660D01*
X100330000Y-80343959D01*
X100047828Y-79921660D01*
X99594609Y-79618828D01*
X99060000Y-79512488D01*
X98525391Y-79618828D01*
X98072172Y-79921660D01*
X97790000Y-80343959D01*
X97507828Y-79921660D01*
X97054609Y-79618828D01*
X96520000Y-79512488D01*
X95985391Y-79618828D01*
X95532172Y-79921660D01*
X95250000Y-80343959D01*
X94967828Y-79921660D01*
X94514609Y-79618828D01*
X93980000Y-79512488D01*
X93445391Y-79618828D01*
X92992172Y-79921660D01*
X92710000Y-80343959D01*
X92427828Y-79921660D01*
X91974609Y-79618828D01*
X91440000Y-79512488D01*
X90905391Y-79618828D01*
X90452172Y-79921660D01*
X90170000Y-80343959D01*
X89887828Y-79921660D01*
X89434609Y-79618828D01*
X88900000Y-79512488D01*
X88365391Y-79618828D01*
X87912172Y-79921660D01*
X87630000Y-80343959D01*
X87347828Y-79921660D01*
X86894609Y-79618828D01*
X86360000Y-79512488D01*
X85825391Y-79618828D01*
X85372172Y-79921660D01*
X85081358Y-80356893D01*
X85062059Y-80291509D01*
X84718026Y-79865820D01*
X84237277Y-79604190D01*
X84163070Y-79589230D01*
X83947000Y-79711730D01*
X83693000Y-79711730D01*
X83476930Y-79589230D01*
X83402723Y-79604190D01*
X82921974Y-79865820D01*
X82577941Y-80291509D01*
X82423000Y-80816450D01*
X75057000Y-80816450D01*
X75057000Y-71592325D01*
X83404587Y-71592325D01*
X83766916Y-72469229D01*
X84437242Y-73140726D01*
X85313513Y-73504585D01*
X86262325Y-73505413D01*
X87139229Y-73143084D01*
X87790547Y-72492902D01*
X88437242Y-73140726D01*
X89313513Y-73504585D01*
X90262325Y-73505413D01*
X91139229Y-73143084D01*
X91751489Y-72531892D01*
X91766916Y-72569229D01*
X92437242Y-73240726D01*
X93313513Y-73604585D01*
X94262325Y-73605413D01*
X95139229Y-73243084D01*
X95810726Y-72572758D01*
X95828216Y-72530636D01*
X96437242Y-73140726D01*
X97313513Y-73504585D01*
X98262325Y-73505413D01*
X99139229Y-73143084D01*
X99810726Y-72472758D01*
X100174585Y-71596487D01*
X100174588Y-71592325D01*
X101904587Y-71592325D01*
X102266916Y-72469229D01*
X102937242Y-73140726D01*
X103813513Y-73504585D01*
X104762325Y-73505413D01*
X105639229Y-73143084D01*
X106290547Y-72492902D01*
X106937242Y-73140726D01*
X107813513Y-73504585D01*
X108762325Y-73505413D01*
X109639229Y-73143084D01*
X110290547Y-72492902D01*
X110937242Y-73140726D01*
X111813513Y-73504585D01*
X112762325Y-73505413D01*
X113639229Y-73143084D01*
X114310726Y-72472758D01*
X114674585Y-71596487D01*
X114675413Y-70647675D01*
X114313084Y-69770771D01*
X113642758Y-69099274D01*
X112766487Y-68735415D01*
X111817675Y-68734587D01*
X110940771Y-69096916D01*
X110289453Y-69747098D01*
X109642758Y-69099274D01*
X108766487Y-68735415D01*
X107817675Y-68734587D01*
X106940771Y-69096916D01*
X106289453Y-69747098D01*
X105642758Y-69099274D01*
X104766487Y-68735415D01*
X103817675Y-68734587D01*
X102940771Y-69096916D01*
X102269274Y-69767242D01*
X101905415Y-70643513D01*
X101904587Y-71592325D01*
X100174588Y-71592325D01*
X100175413Y-70647675D01*
X99813084Y-69770771D01*
X99142758Y-69099274D01*
X98266487Y-68735415D01*
X97317675Y-68734587D01*
X96440771Y-69096916D01*
X95769274Y-69767242D01*
X95751784Y-69809364D01*
X95142758Y-69199274D01*
X94266487Y-68835415D01*
X93317675Y-68834587D01*
X92440771Y-69196916D01*
X91828511Y-69808108D01*
X91813084Y-69770771D01*
X91142758Y-69099274D01*
X90266487Y-68735415D01*
X89317675Y-68734587D01*
X88440771Y-69096916D01*
X87789453Y-69747098D01*
X87142758Y-69099274D01*
X86266487Y-68735415D01*
X85317675Y-68734587D01*
X84440771Y-69096916D01*
X83769274Y-69767242D01*
X83405415Y-70643513D01*
X83404587Y-71592325D01*
X75057000Y-71592325D01*
X75057000Y-64250218D01*
X75691847Y-64886174D01*
X76843674Y-65364454D01*
X78090854Y-65365543D01*
X79243515Y-64889273D01*
X80126174Y-64008153D01*
X80604454Y-62856326D01*
X80605543Y-61609146D01*
X80129273Y-60456485D01*
X79490903Y-59817000D01*
X117359782Y-59817000D01*
X116723826Y-60451847D01*
M02*
